<?xml version="1.0" encoding="UTF-8" standalone="no"?><svg xmlns="http://www.w3.org/2000/svg" xmlns:xlink="http://www.w3.org/1999/xlink" contentStyleType="text/css" height="1297px" preserveAspectRatio="none" style="width:2051px;height:1297px;background:#FFFFFF;" version="1.1" viewBox="0 0 2051 1297" width="2051px" zoomAndPan="magnify"><defs/><g><!--MD5=[1bee9b52ba23bdf8eb501a4b3e6034cd]
cluster com.lordoftherings--><g id="cluster_com.lordoftherings"><path d="M8.5,6 L143.5,6 A3.75,3.75 0 0 1 146,8.5 L153,29.6094 L2041.5,29.6094 A2.5,2.5 0 0 1 2044,32.1094 L2044,1287.5 A2.5,2.5 0 0 1 2041.5,1290 L8.5,1290 A2.5,2.5 0 0 1 6,1287.5 L6,8.5 A2.5,2.5 0 0 1 8.5,6 " fill="none" style="stroke:#000000;stroke-width:1.5;"/><line style="stroke:#000000;stroke-width:1.5;" x1="6" x2="153" y1="29.6094" y2="29.6094"/><text fill="#000000" font-family="sans-serif" font-size="14" font-weight="bold" lengthAdjust="spacing" textLength="134" x="10" y="22.5332">com.lordoftherings</text></g><!--MD5=[b5066ed23ac99e9ea01024a2a3806b23]
cluster Creatures--><g id="cluster_Creatures"><path d="M32.5,539 L103.5,539 A3.75,3.75 0 0 1 106,541.5 L113,562.6094 L1628.5,562.6094 A2.5,2.5 0 0 1 1631,565.1094 L1631,1263.5 A2.5,2.5 0 0 1 1628.5,1266 L32.5,1266 A2.5,2.5 0 0 1 30,1263.5 L30,541.5 A2.5,2.5 0 0 1 32.5,539 " fill="none" style="stroke:#000000;stroke-width:1.5;"/><line style="stroke:#000000;stroke-width:1.5;" x1="30" x2="113" y1="562.6094" y2="562.6094"/><text fill="#000000" font-family="sans-serif" font-size="14" font-weight="bold" lengthAdjust="spacing" textLength="70" x="34" y="555.5332">Creatures</text></g><!--MD5=[ebaaf337be7c4e2f132a77c27033c20d]
cluster heroes--><g id="cluster_heroes"><path d="M56.5,823 L107.5,823 A3.75,3.75 0 0 1 110,825.5 L117,846.6094 L969.5,846.6094 A2.5,2.5 0 0 1 972,849.1094 L972,1239.5 A2.5,2.5 0 0 1 969.5,1242 L56.5,1242 A2.5,2.5 0 0 1 54,1239.5 L54,825.5 A2.5,2.5 0 0 1 56.5,823 " fill="none" style="stroke:#000000;stroke-width:1.5;"/><line style="stroke:#000000;stroke-width:1.5;" x1="54" x2="117" y1="846.6094" y2="846.6094"/><text fill="#000000" font-family="sans-serif" font-size="14" font-weight="bold" lengthAdjust="spacing" textLength="50" x="58" y="839.5332">heroes</text></g><!--MD5=[e7096aa800d8c99b0c53e07abbfa9e39]
cluster beasts--><g id="cluster_beasts"><path d="M998.5,831.5 L1046.5,831.5 A3.75,3.75 0 0 1 1049,834 L1056,855.1094 L1604.5,855.1094 A2.5,2.5 0 0 1 1607,857.6094 L1607,1230.5 A2.5,2.5 0 0 1 1604.5,1233 L998.5,1233 A2.5,2.5 0 0 1 996,1230.5 L996,834 A2.5,2.5 0 0 1 998.5,831.5 " fill="none" style="stroke:#000000;stroke-width:1.5;"/><line style="stroke:#000000;stroke-width:1.5;" x1="996" x2="1056" y1="855.1094" y2="855.1094"/><text fill="#000000" font-family="sans-serif" font-size="14" font-weight="bold" lengthAdjust="spacing" textLength="47" x="1000" y="848.0332">beasts</text></g><!--MD5=[502790a67a8267bf951450459cccf605]
class LordOfTheRings--><g id="elem_LordOfTheRings"><rect codeLine="3" fill="#F1F1F1" height="188.875" id="LordOfTheRings" rx="2.5" ry="2.5" style="stroke:#181818;stroke-width:0.5;" width="211" x="1227.5" y="42"/><ellipse cx="1276.25" cy="58" fill="#ADD1B2" rx="11" ry="11" style="stroke:#181818;stroke-width:1.0;"/><path d="M1279.0156,53.875 Q1279.1719,53.6563 1279.3594,53.5469 Q1279.5469,53.4375 1279.7656,53.4375 Q1280.1406,53.4375 1280.375,53.6953 Q1280.6094,53.9531 1280.6094,54.5625 L1280.6094,56.0156 Q1280.6094,56.625 1280.375,56.8906 Q1280.1406,57.1563 1279.7656,57.1563 Q1279.4219,57.1563 1279.2188,56.9531 Q1279.0156,56.7656 1278.9063,56.25 Q1278.8594,55.8906 1278.6719,55.7031 Q1278.3438,55.3281 1277.7344,55.1094 Q1277.125,54.8906 1276.5,54.8906 Q1275.7344,54.8906 1275.1016,55.2188 Q1274.4688,55.5469 1273.9766,56.2969 Q1273.4844,57.0469 1273.4844,58.0781 L1273.4844,59.1719 Q1273.4844,60.4063 1274.375,61.2266 Q1275.2656,62.0469 1276.8594,62.0469 Q1277.7969,62.0469 1278.4531,61.7969 Q1278.8438,61.6406 1279.2656,61.2031 Q1279.5313,60.9375 1279.6797,60.8594 Q1279.8281,60.7813 1280.0313,60.7813 Q1280.3594,60.7813 1280.6172,61.0391 Q1280.875,61.2969 1280.875,61.6406 Q1280.875,61.9844 1280.5313,62.3906 Q1280.0313,62.9688 1279.2344,63.2969 Q1278.1563,63.75 1276.8594,63.75 Q1275.3438,63.75 1274.1406,63.125 Q1273.1563,62.625 1272.4688,61.5547 Q1271.7813,60.4844 1271.7813,59.2031 L1271.7813,58.0469 Q1271.7813,56.7188 1272.3984,55.5703 Q1273.0156,54.4219 1274.1094,53.8047 Q1275.2031,53.1875 1276.4375,53.1875 Q1277.1719,53.1875 1277.8203,53.3516 Q1278.4688,53.5156 1279.0156,53.875 Z " fill="#000000"/><text fill="#000000" font-family="sans-serif" font-size="14" lengthAdjust="spacing" textLength="105" x="1296.75" y="63.7285">LordOfTheRings</text><line style="stroke:#181818;stroke-width:0.5;" x1="1228.5" x2="1437.5" y1="74" y2="74"/><rect fill="none" height="6" style="stroke:#C82930;stroke-width:1.0;" width="6" x="1235.5" y="85.3047"/><text fill="#000000" font-family="sans-serif" font-size="14" lengthAdjust="spacing" textLength="105" x="1247.5" y="92.5332">Army heroeArmy</text><rect fill="none" height="6" style="stroke:#C82930;stroke-width:1.0;" width="6" x="1235.5" y="102.9141"/><text fill="#000000" font-family="sans-serif" font-size="14" lengthAdjust="spacing" textLength="103" x="1247.5" y="110.1426">Army beastArmy</text><rect fill="none" height="6" style="stroke:#C82930;stroke-width:1.0;" width="6" x="1235.5" y="120.5234"/><text fill="#000000" font-family="sans-serif" font-size="14" lengthAdjust="spacing" textLength="59" x="1247.5" y="127.752">Turn turn</text><rect fill="none" height="6" style="stroke:#C82930;stroke-width:1.0;" width="6" x="1235.5" y="138.1328"/><text fill="#000000" font-family="sans-serif" font-size="14" lengthAdjust="spacing" textLength="185" x="1247.5" y="145.3613">CombatHistory combatHistory</text><line style="stroke:#181818;stroke-width:0.5;" x1="1228.5" x2="1437.5" y1="152.4375" y2="152.4375"/><ellipse cx="1238.5" cy="166.7422" fill="#84BE84" rx="3" ry="3" style="stroke:#038048;stroke-width:1.0;"/><text fill="#000000" font-family="sans-serif" font-size="14" lengthAdjust="spacing" textLength="75" x="1247.5" y="170.9707">void setup()</text><ellipse cx="1238.5" cy="184.3516" fill="#84BE84" rx="3" ry="3" style="stroke:#038048;stroke-width:1.0;"/><text fill="#000000" font-family="sans-serif" font-size="14" lengthAdjust="spacing" textLength="89" x="1247.5" y="188.5801">void execute()</text><ellipse cx="1238.5" cy="201.9609" fill="#84BE84" rx="3" ry="3" style="stroke:#038048;stroke-width:1.0;"/><text fill="#000000" font-family="sans-serif" font-size="14" lengthAdjust="spacing" textLength="155" x="1247.5" y="206.1895">void createBeastsArmy()</text><ellipse cx="1238.5" cy="219.5703" fill="#84BE84" rx="3" ry="3" style="stroke:#038048;stroke-width:1.0;"/><text fill="#000000" font-family="sans-serif" font-size="14" lengthAdjust="spacing" textLength="157" x="1247.5" y="223.7988">void createHeroesArmy()</text></g><!--MD5=[dd91eae41778c45e12552e5329e240e8]
class Turn--><g id="elem_Turn"><rect codeLine="15" fill="#F1F1F1" height="224.0938" id="Turn" rx="2.5" ry="2.5" style="stroke:#181818;stroke-width:0.5;" width="477" x="701.5" y="291"/><ellipse cx="920.75" cy="307" fill="#ADD1B2" rx="11" ry="11" style="stroke:#181818;stroke-width:1.0;"/><path d="M923.5156,302.875 Q923.6719,302.6563 923.8594,302.5469 Q924.0469,302.4375 924.2656,302.4375 Q924.6406,302.4375 924.875,302.6953 Q925.1094,302.9531 925.1094,303.5625 L925.1094,305.0156 Q925.1094,305.625 924.875,305.8906 Q924.6406,306.1563 924.2656,306.1563 Q923.9219,306.1563 923.7188,305.9531 Q923.5156,305.7656 923.4063,305.25 Q923.3594,304.8906 923.1719,304.7031 Q922.8438,304.3281 922.2344,304.1094 Q921.625,303.8906 921,303.8906 Q920.2344,303.8906 919.6016,304.2188 Q918.9688,304.5469 918.4766,305.2969 Q917.9844,306.0469 917.9844,307.0781 L917.9844,308.1719 Q917.9844,309.4063 918.875,310.2266 Q919.7656,311.0469 921.3594,311.0469 Q922.2969,311.0469 922.9531,310.7969 Q923.3438,310.6406 923.7656,310.2031 Q924.0313,309.9375 924.1797,309.8594 Q924.3281,309.7813 924.5313,309.7813 Q924.8594,309.7813 925.1172,310.0391 Q925.375,310.2969 925.375,310.6406 Q925.375,310.9844 925.0313,311.3906 Q924.5313,311.9688 923.7344,312.2969 Q922.6563,312.75 921.3594,312.75 Q919.8438,312.75 918.6406,312.125 Q917.6563,311.625 916.9688,310.5547 Q916.2813,309.4844 916.2813,308.2031 L916.2813,307.0469 Q916.2813,305.7188 916.8984,304.5703 Q917.5156,303.4219 918.6094,302.8047 Q919.7031,302.1875 920.9375,302.1875 Q921.6719,302.1875 922.3203,302.3516 Q922.9688,302.5156 923.5156,302.875 Z " fill="#000000"/><text fill="#000000" font-family="sans-serif" font-size="14" lengthAdjust="spacing" textLength="30" x="941.25" y="312.7285">Turn</text><line style="stroke:#181818;stroke-width:0.5;" x1="702.5" x2="1177.5" y1="323" y2="323"/><rect fill="none" height="6" style="stroke:#C82930;stroke-width:1.0;" width="6" x="709.5" y="334.3047"/><text fill="#000000" font-family="sans-serif" font-size="14" lengthAdjust="spacing" textLength="105" x="721.5" y="341.5332">Army heroeArmy</text><rect fill="none" height="6" style="stroke:#C82930;stroke-width:1.0;" width="6" x="709.5" y="351.9141"/><text fill="#000000" font-family="sans-serif" font-size="14" lengthAdjust="spacing" textLength="103" x="721.5" y="359.1426">Army beastArmy</text><rect fill="none" height="6" style="stroke:#C82930;stroke-width:1.0;" width="6" x="709.5" y="369.5234"/><text fill="#000000" font-family="sans-serif" font-size="14" lengthAdjust="spacing" textLength="95" x="721.5" y="376.752">int heroeAttack</text><rect fill="none" height="6" style="stroke:#C82930;stroke-width:1.0;" width="6" x="709.5" y="387.1328"/><text fill="#000000" font-family="sans-serif" font-size="14" lengthAdjust="spacing" textLength="93" x="721.5" y="394.3613">int beastAttack</text><rect fill="none" height="6" style="stroke:#C82930;stroke-width:1.0;" width="6" x="709.5" y="404.7422"/><text fill="#000000" font-family="sans-serif" font-size="14" lengthAdjust="spacing" textLength="103" x="721.5" y="411.9707">int damageDealt</text><rect fill="none" height="6" style="stroke:#C82930;stroke-width:1.0;" width="6" x="709.5" y="422.3516"/><text fill="#000000" font-family="sans-serif" font-size="14" lengthAdjust="spacing" textLength="185" x="721.5" y="429.5801">CombatHistory combatHistory</text><line style="stroke:#181818;stroke-width:0.5;" x1="702.5" x2="1177.5" y1="436.6563" y2="436.6563"/><ellipse cx="712.5" cy="450.9609" fill="#84BE84" rx="3" ry="3" style="stroke:#038048;stroke-width:1.0;"/><text fill="#000000" font-family="sans-serif" font-size="14" lengthAdjust="spacing" textLength="449" x="721.5" y="455.1895">Turn(Army heroeArmy, Army beastArmy, CombatHistory combatHistory)</text><ellipse cx="712.5" cy="468.5703" fill="#84BE84" rx="3" ry="3" style="stroke:#038048;stroke-width:1.0;"/><text fill="#000000" font-family="sans-serif" font-size="14" lengthAdjust="spacing" textLength="86" x="721.5" y="472.7988">void combat()</text><ellipse cx="712.5" cy="486.1797" fill="#84BE84" rx="3" ry="3" style="stroke:#038048;stroke-width:1.0;"/><text fill="#000000" font-family="sans-serif" font-size="14" lengthAdjust="spacing" textLength="171" x="721.5" y="490.4082">int calculateDamageDealt()</text><ellipse cx="712.5" cy="503.7891" fill="#84BE84" rx="3" ry="3" style="stroke:#038048;stroke-width:1.0;"/><text fill="#000000" font-family="sans-serif" font-size="14" lengthAdjust="spacing" textLength="451" x="721.5" y="508.0176">void showTurnResults(int currentTurn, Creature heroe, Creature beast)</text></g><!--MD5=[1283a7b4657281046841182c8e1f9c08]
class CombatHistory--><g id="elem_CombatHistory"><rect codeLine="29" fill="#F1F1F1" height="136.0469" id="CombatHistory" rx="2.5" ry="2.5" style="stroke:#181818;stroke-width:0.5;" width="507" x="685.5" y="68.5"/><ellipse cx="888.75" cy="84.5" fill="#ADD1B2" rx="11" ry="11" style="stroke:#181818;stroke-width:1.0;"/><path d="M891.5156,80.375 Q891.6719,80.1563 891.8594,80.0469 Q892.0469,79.9375 892.2656,79.9375 Q892.6406,79.9375 892.875,80.1953 Q893.1094,80.4531 893.1094,81.0625 L893.1094,82.5156 Q893.1094,83.125 892.875,83.3906 Q892.6406,83.6563 892.2656,83.6563 Q891.9219,83.6563 891.7188,83.4531 Q891.5156,83.2656 891.4063,82.75 Q891.3594,82.3906 891.1719,82.2031 Q890.8438,81.8281 890.2344,81.6094 Q889.625,81.3906 889,81.3906 Q888.2344,81.3906 887.6016,81.7188 Q886.9688,82.0469 886.4766,82.7969 Q885.9844,83.5469 885.9844,84.5781 L885.9844,85.6719 Q885.9844,86.9063 886.875,87.7266 Q887.7656,88.5469 889.3594,88.5469 Q890.2969,88.5469 890.9531,88.2969 Q891.3438,88.1406 891.7656,87.7031 Q892.0313,87.4375 892.1797,87.3594 Q892.3281,87.2813 892.5313,87.2813 Q892.8594,87.2813 893.1172,87.5391 Q893.375,87.7969 893.375,88.1406 Q893.375,88.4844 893.0313,88.8906 Q892.5313,89.4688 891.7344,89.7969 Q890.6563,90.25 889.3594,90.25 Q887.8438,90.25 886.6406,89.625 Q885.6563,89.125 884.9688,88.0547 Q884.2813,86.9844 884.2813,85.7031 L884.2813,84.5469 Q884.2813,83.2188 884.8984,82.0703 Q885.5156,80.9219 886.6094,80.3047 Q887.7031,79.6875 888.9375,79.6875 Q889.6719,79.6875 890.3203,79.8516 Q890.9688,80.0156 891.5156,80.375 Z " fill="#000000"/><text fill="#000000" font-family="sans-serif" font-size="14" lengthAdjust="spacing" textLength="92" x="909.25" y="90.2285">CombatHistory</text><line style="stroke:#181818;stroke-width:0.5;" x1="686.5" x2="1191.5" y1="100.5" y2="100.5"/><rect fill="none" height="6" style="stroke:#C82930;stroke-width:1.0;" width="6" x="693.5" y="111.8047"/><text fill="#000000" font-family="sans-serif" font-size="14" lengthAdjust="spacing" textLength="93" x="705.5" y="119.0332">int turnNumber</text><rect fill="none" height="6" style="stroke:#C82930;stroke-width:1.0;" width="6" x="693.5" y="129.4141"/><text fill="#000000" font-family="sans-serif" font-size="14" lengthAdjust="spacing" textLength="101" x="705.5" y="136.6426">Creature winner</text><rect fill="none" height="6" style="stroke:#C82930;stroke-width:1.0;" width="6" x="693.5" y="147.0234"/><text fill="#000000" font-family="sans-serif" font-size="14" lengthAdjust="spacing" textLength="91" x="705.5" y="154.252">Creature loser</text><rect fill="none" height="6" style="stroke:#C82930;stroke-width:1.0;" width="6" x="693.5" y="164.6328"/><text fill="#000000" font-family="sans-serif" font-size="14" lengthAdjust="spacing" textLength="70" x="705.5" y="171.8613">int damage</text><line style="stroke:#181818;stroke-width:0.5;" x1="686.5" x2="1191.5" y1="178.9375" y2="178.9375"/><ellipse cx="696.5" cy="193.2422" fill="#84BE84" rx="3" ry="3" style="stroke:#038048;stroke-width:1.0;"/><text fill="#000000" font-family="sans-serif" font-size="14" lengthAdjust="spacing" textLength="481" x="705.5" y="197.4707">CombatHistory(int turnNumber, Creature winner, Creature loser, int damage)</text></g><!--MD5=[b96ce472b013257463663b1526cad2a5]
class Army--><g id="elem_Army"><rect codeLine="123" fill="#F1F1F1" height="118.4375" id="Army" rx="2.5" ry="2.5" style="stroke:#181818;stroke-width:0.5;" width="233" x="1215.5" y="344"/><ellipse cx="1311.75" cy="360" fill="#ADD1B2" rx="11" ry="11" style="stroke:#181818;stroke-width:1.0;"/><path d="M1314.5156,355.875 Q1314.6719,355.6563 1314.8594,355.5469 Q1315.0469,355.4375 1315.2656,355.4375 Q1315.6406,355.4375 1315.875,355.6953 Q1316.1094,355.9531 1316.1094,356.5625 L1316.1094,358.0156 Q1316.1094,358.625 1315.875,358.8906 Q1315.6406,359.1563 1315.2656,359.1563 Q1314.9219,359.1563 1314.7188,358.9531 Q1314.5156,358.7656 1314.4063,358.25 Q1314.3594,357.8906 1314.1719,357.7031 Q1313.8438,357.3281 1313.2344,357.1094 Q1312.625,356.8906 1312,356.8906 Q1311.2344,356.8906 1310.6016,357.2188 Q1309.9688,357.5469 1309.4766,358.2969 Q1308.9844,359.0469 1308.9844,360.0781 L1308.9844,361.1719 Q1308.9844,362.4063 1309.875,363.2266 Q1310.7656,364.0469 1312.3594,364.0469 Q1313.2969,364.0469 1313.9531,363.7969 Q1314.3438,363.6406 1314.7656,363.2031 Q1315.0313,362.9375 1315.1797,362.8594 Q1315.3281,362.7813 1315.5313,362.7813 Q1315.8594,362.7813 1316.1172,363.0391 Q1316.375,363.2969 1316.375,363.6406 Q1316.375,363.9844 1316.0313,364.3906 Q1315.5313,364.9688 1314.7344,365.2969 Q1313.6563,365.75 1312.3594,365.75 Q1310.8438,365.75 1309.6406,365.125 Q1308.6563,364.625 1307.9688,363.5547 Q1307.2813,362.4844 1307.2813,361.2031 L1307.2813,360.0469 Q1307.2813,358.7188 1307.8984,357.5703 Q1308.5156,356.4219 1309.6094,355.8047 Q1310.7031,355.1875 1311.9375,355.1875 Q1312.6719,355.1875 1313.3203,355.3516 Q1313.9688,355.5156 1314.5156,355.875 Z " fill="#000000"/><text fill="#000000" font-family="sans-serif" font-size="14" lengthAdjust="spacing" textLength="32" x="1332.25" y="365.7285">Army</text><line style="stroke:#181818;stroke-width:0.5;" x1="1216.5" x2="1447.5" y1="376" y2="376"/><rect fill="none" height="6" style="stroke:#C82930;stroke-width:1.0;" width="6" x="1223.5" y="387.3047"/><text fill="#000000" font-family="sans-serif" font-size="14" lengthAdjust="spacing" textLength="163" x="1235.5" y="394.5332">ArrayList&lt;Creature&gt; army</text><line style="stroke:#181818;stroke-width:0.5;" x1="1216.5" x2="1447.5" y1="401.6094" y2="401.6094"/><ellipse cx="1226.5" cy="415.9141" fill="#84BE84" rx="3" ry="3" style="stroke:#038048;stroke-width:1.0;"/><text fill="#000000" font-family="sans-serif" font-size="14" lengthAdjust="spacing" textLength="42" x="1235.5" y="420.1426">Army()</text><ellipse cx="1226.5" cy="433.5234" fill="#84BE84" rx="3" ry="3" style="stroke:#038048;stroke-width:1.0;"/><text fill="#000000" font-family="sans-serif" font-size="14" lengthAdjust="spacing" textLength="194" x="1235.5" y="437.752">ArrayList&lt;Creature&gt; getArmy()</text><ellipse cx="1226.5" cy="451.1328" fill="#84BE84" rx="3" ry="3" style="stroke:#038048;stroke-width:1.0;"/><text fill="#000000" font-family="sans-serif" font-size="14" lengthAdjust="spacing" textLength="207" x="1235.5" y="455.3613">void setArmy(Creature Creature)</text></g><!--MD5=[69008145949e6490fba362a1c158cb82]
class AbstractCreatureFactory--><g id="elem_AbstractCreatureFactory"><rect codeLine="131" fill="#F1F1F1" height="65.6094" id="AbstractCreatureFactory" rx="2.5" ry="2.5" style="stroke:#181818;stroke-width:0.5;" width="188" x="1640" y="370"/><ellipse cx="1655" cy="386" fill="#A9DCDF" rx="11" ry="11" style="stroke:#181818;stroke-width:1.0;"/><path d="M1657.1875,387.7656 L1653.0469,387.7656 L1652.625,388.7969 L1653.0469,388.7969 Q1653.6563,388.7969 1653.9219,389.0313 Q1654.1875,389.2656 1654.1875,389.6563 Q1654.1875,390.0313 1653.9219,390.2656 Q1653.6563,390.5 1653.0469,390.5 L1650.75,390.5 Q1650.1406,390.5 1649.8828,390.2656 Q1649.625,390.0313 1649.625,389.6406 Q1649.625,389.2656 1649.8984,389.0234 Q1650.1719,388.7813 1650.7969,388.7969 L1653.4688,382.1406 L1652.3594,382.1406 Q1651.75,382.1406 1651.4844,381.9063 Q1651.2188,381.6719 1651.2188,381.2813 Q1651.2188,380.9063 1651.4844,380.6719 Q1651.75,380.4375 1652.3594,380.4375 L1656.0313,380.4375 L1659.4219,388.7969 Q1660.0156,388.7969 1660.2031,388.9375 Q1660.5938,389.2031 1660.5938,389.6563 Q1660.5938,390.0313 1660.3359,390.2656 Q1660.0781,390.5 1659.4688,390.5 L1657.1719,390.5 Q1656.5625,390.5 1656.2969,390.2656 Q1656.0313,390.0313 1656.0313,389.6406 Q1656.0313,389.2656 1656.2969,389.0313 Q1656.5625,388.7969 1657.1719,388.7969 L1657.5938,388.7969 L1657.1875,387.7656 Z M1656.4688,386.0625 L1655.1094,382.6875 L1653.7344,386.0625 L1656.4688,386.0625 Z " fill="#000000"/><text fill="#000000" font-family="sans-serif" font-size="14" font-style="italic" lengthAdjust="spacing" textLength="156" x="1669" y="391.7285">AbstractCreatureFactory</text><line style="stroke:#181818;stroke-width:0.5;" x1="1641" x2="1827" y1="402" y2="402"/><line style="stroke:#181818;stroke-width:0.5;" x1="1641" x2="1827" y1="410" y2="410"/><text fill="#000000" font-family="sans-serif" font-size="14" lengthAdjust="spacing" textLength="166" x="1646" y="428.5332">Creature createCreature()</text></g><!--MD5=[912597c984f9d9080eb722a57dab8f8f]
class HeroesFactory--><g id="elem_HeroesFactory"><rect codeLine="135" fill="#F1F1F1" height="65.6094" id="HeroesFactory" rx="2.5" ry="2.5" style="stroke:#181818;stroke-width:0.5;" width="174" x="1647" y="654"/><ellipse cx="1684.05" cy="670" fill="#ADD1B2" rx="11" ry="11" style="stroke:#181818;stroke-width:1.0;"/><path d="M1686.8156,665.875 Q1686.9719,665.6563 1687.1594,665.5469 Q1687.3469,665.4375 1687.5656,665.4375 Q1687.9406,665.4375 1688.175,665.6953 Q1688.4094,665.9531 1688.4094,666.5625 L1688.4094,668.0156 Q1688.4094,668.625 1688.175,668.8906 Q1687.9406,669.1563 1687.5656,669.1563 Q1687.2219,669.1563 1687.0188,668.9531 Q1686.8156,668.7656 1686.7063,668.25 Q1686.6594,667.8906 1686.4719,667.7031 Q1686.1438,667.3281 1685.5344,667.1094 Q1684.925,666.8906 1684.3,666.8906 Q1683.5344,666.8906 1682.9016,667.2188 Q1682.2688,667.5469 1681.7766,668.2969 Q1681.2844,669.0469 1681.2844,670.0781 L1681.2844,671.1719 Q1681.2844,672.4063 1682.175,673.2266 Q1683.0656,674.0469 1684.6594,674.0469 Q1685.5969,674.0469 1686.2531,673.7969 Q1686.6438,673.6406 1687.0656,673.2031 Q1687.3313,672.9375 1687.4797,672.8594 Q1687.6281,672.7813 1687.8313,672.7813 Q1688.1594,672.7813 1688.4172,673.0391 Q1688.675,673.2969 1688.675,673.6406 Q1688.675,673.9844 1688.3313,674.3906 Q1687.8313,674.9688 1687.0344,675.2969 Q1685.9563,675.75 1684.6594,675.75 Q1683.1438,675.75 1681.9406,675.125 Q1680.9563,674.625 1680.2688,673.5547 Q1679.5813,672.4844 1679.5813,671.2031 L1679.5813,670.0469 Q1679.5813,668.7188 1680.1984,667.5703 Q1680.8156,666.4219 1681.9094,665.8047 Q1683.0031,665.1875 1684.2375,665.1875 Q1684.9719,665.1875 1685.6203,665.3516 Q1686.2688,665.5156 1686.8156,665.875 Z " fill="#000000"/><text fill="#000000" font-family="sans-serif" font-size="14" lengthAdjust="spacing" textLength="93" x="1702.95" y="675.7285">HeroesFactory</text><line style="stroke:#181818;stroke-width:0.5;" x1="1648" x2="1820" y1="686" y2="686"/><line style="stroke:#181818;stroke-width:0.5;" x1="1648" x2="1820" y1="694" y2="694"/><ellipse cx="1658" cy="708.3047" fill="#84BE84" rx="3" ry="3" style="stroke:#038048;stroke-width:1.0;"/><text fill="#000000" font-family="sans-serif" font-size="14" lengthAdjust="spacing" textLength="148" x="1667" y="712.5332">Heroe createCreature()</text></g><!--MD5=[025eda00c86988c0f575c5eb91f50309]
class BeastsFactory--><g id="elem_BeastsFactory"><rect codeLine="139" fill="#F1F1F1" height="65.6094" id="BeastsFactory" rx="2.5" ry="2.5" style="stroke:#181818;stroke-width:0.5;" width="172" x="1856" y="654"/><ellipse cx="1893.05" cy="670" fill="#ADD1B2" rx="11" ry="11" style="stroke:#181818;stroke-width:1.0;"/><path d="M1895.8156,665.875 Q1895.9719,665.6563 1896.1594,665.5469 Q1896.3469,665.4375 1896.5656,665.4375 Q1896.9406,665.4375 1897.175,665.6953 Q1897.4094,665.9531 1897.4094,666.5625 L1897.4094,668.0156 Q1897.4094,668.625 1897.175,668.8906 Q1896.9406,669.1563 1896.5656,669.1563 Q1896.2219,669.1563 1896.0188,668.9531 Q1895.8156,668.7656 1895.7063,668.25 Q1895.6594,667.8906 1895.4719,667.7031 Q1895.1438,667.3281 1894.5344,667.1094 Q1893.925,666.8906 1893.3,666.8906 Q1892.5344,666.8906 1891.9016,667.2188 Q1891.2688,667.5469 1890.7766,668.2969 Q1890.2844,669.0469 1890.2844,670.0781 L1890.2844,671.1719 Q1890.2844,672.4063 1891.175,673.2266 Q1892.0656,674.0469 1893.6594,674.0469 Q1894.5969,674.0469 1895.2531,673.7969 Q1895.6438,673.6406 1896.0656,673.2031 Q1896.3313,672.9375 1896.4797,672.8594 Q1896.6281,672.7813 1896.8313,672.7813 Q1897.1594,672.7813 1897.4172,673.0391 Q1897.675,673.2969 1897.675,673.6406 Q1897.675,673.9844 1897.3313,674.3906 Q1896.8313,674.9688 1896.0344,675.2969 Q1894.9563,675.75 1893.6594,675.75 Q1892.1438,675.75 1890.9406,675.125 Q1889.9563,674.625 1889.2688,673.5547 Q1888.5813,672.4844 1888.5813,671.2031 L1888.5813,670.0469 Q1888.5813,668.7188 1889.1984,667.5703 Q1889.8156,666.4219 1890.9094,665.8047 Q1892.0031,665.1875 1893.2375,665.1875 Q1893.9719,665.1875 1894.6203,665.3516 Q1895.2688,665.5156 1895.8156,665.875 Z " fill="#000000"/><text fill="#000000" font-family="sans-serif" font-size="14" lengthAdjust="spacing" textLength="91" x="1911.95" y="675.7285">BeastsFactory</text><line style="stroke:#181818;stroke-width:0.5;" x1="1857" x2="2027" y1="686" y2="686"/><line style="stroke:#181818;stroke-width:0.5;" x1="1857" x2="2027" y1="694" y2="694"/><ellipse cx="1867" cy="708.3047" fill="#84BE84" rx="3" ry="3" style="stroke:#038048;stroke-width:1.0;"/><text fill="#000000" font-family="sans-serif" font-size="14" lengthAdjust="spacing" textLength="146" x="1876" y="712.5332">Beast createCreature()</text></g><!--MD5=[fd3b7f7177bc8ff7a1d90ffa0811e55e]
class CreatureType--><g id="elem_CreatureType"><rect codeLine="39" fill="#F1F1F1" height="136.0469" id="CreatureType" rx="2.5" ry="2.5" style="stroke:#181818;stroke-width:0.5;" width="120" x="1470" y="619"/><ellipse cx="1485" cy="635" fill="#EB937F" rx="11" ry="11" style="stroke:#181818;stroke-width:1.0;"/><path d="M1483.8594,635.7969 L1483.8594,638.2969 L1488.1875,638.2969 L1488.1875,637.375 Q1488.1875,636.7656 1488.4297,636.5 Q1488.6719,636.2344 1489.0469,636.2344 Q1489.4219,636.2344 1489.6563,636.5 Q1489.8906,636.7656 1489.8906,637.375 L1489.8906,640 L1481.8906,640 Q1481.2656,640 1481.0078,639.7656 Q1480.75,639.5313 1480.75,639.1406 Q1480.75,638.7656 1481.0156,638.5313 Q1481.2813,638.2969 1481.8906,638.2969 L1482.1563,638.2969 L1482.1563,631.6406 L1481.8906,631.6406 Q1481.2656,631.6406 1481.0078,631.4063 Q1480.75,631.1719 1480.75,630.7813 Q1480.75,630.4063 1481.0078,630.1719 Q1481.2656,629.9375 1481.8906,629.9375 L1489.5156,629.9375 L1489.5156,632.5313 Q1489.5156,633.1406 1489.2891,633.3984 Q1489.0625,633.6563 1488.6719,633.6563 Q1488.2969,633.6563 1488.0625,633.3984 Q1487.8281,633.1406 1487.8281,632.5313 L1487.8281,631.6406 L1483.8594,631.6406 L1483.8594,634.0938 L1485.3438,634.0938 Q1485.3438,633.4375 1485.4688,633.25 Q1485.7344,632.8438 1486.2031,632.8438 Q1486.5781,632.8438 1486.8125,633.1016 Q1487.0469,633.3594 1487.0469,633.9688 L1487.0469,635.9375 Q1487.0469,636.4844 1486.9219,636.6719 Q1486.6563,637.0625 1486.2031,637.0625 Q1485.7344,637.0625 1485.4688,636.6563 Q1485.3438,636.4688 1485.3438,635.7969 L1483.8594,635.7969 Z " fill="#000000"/><text fill="#000000" font-family="sans-serif" font-size="14" lengthAdjust="spacing" textLength="88" x="1499" y="640.7285">CreatureType</text><line style="stroke:#181818;stroke-width:0.5;" x1="1471" x2="1589" y1="651" y2="651"/><text fill="#000000" font-family="sans-serif" font-size="14" lengthAdjust="spacing" textLength="47" x="1476" y="669.5332">HUMAN</text><text fill="#000000" font-family="sans-serif" font-size="14" lengthAdjust="spacing" textLength="26" x="1476" y="687.1426">ELF</text><text fill="#000000" font-family="sans-serif" font-size="14" lengthAdjust="spacing" textLength="50" x="1476" y="704.752">HOBBIT</text><text fill="#000000" font-family="sans-serif" font-size="14" lengthAdjust="spacing" textLength="31" x="1476" y="722.3613">ORC</text><text fill="#000000" font-family="sans-serif" font-size="14" lengthAdjust="spacing" textLength="51" x="1476" y="739.9707">GOBLIN</text><line style="stroke:#181818;stroke-width:0.5;" x1="1471" x2="1589" y1="747.0469" y2="747.0469"/></g><!--MD5=[44ca42c838863b58db979b90ca73cb5f]
class Creature--><g id="elem_Creature"><rect codeLine="47" fill="#F1F1F1" height="224.0938" id="Creature" rx="2.5" ry="2.5" style="stroke:#181818;stroke-width:0.5;" width="386" x="1005" y="575"/><ellipse cx="1165.75" cy="591" fill="#A9DCDF" rx="11" ry="11" style="stroke:#181818;stroke-width:1.0;"/><path d="M1167.9375,592.7656 L1163.7969,592.7656 L1163.375,593.7969 L1163.7969,593.7969 Q1164.4063,593.7969 1164.6719,594.0313 Q1164.9375,594.2656 1164.9375,594.6563 Q1164.9375,595.0313 1164.6719,595.2656 Q1164.4063,595.5 1163.7969,595.5 L1161.5,595.5 Q1160.8906,595.5 1160.6328,595.2656 Q1160.375,595.0313 1160.375,594.6406 Q1160.375,594.2656 1160.6484,594.0234 Q1160.9219,593.7813 1161.5469,593.7969 L1164.2188,587.1406 L1163.1094,587.1406 Q1162.5,587.1406 1162.2344,586.9063 Q1161.9688,586.6719 1161.9688,586.2813 Q1161.9688,585.9063 1162.2344,585.6719 Q1162.5,585.4375 1163.1094,585.4375 L1166.7813,585.4375 L1170.1719,593.7969 Q1170.7656,593.7969 1170.9531,593.9375 Q1171.3438,594.2031 1171.3438,594.6563 Q1171.3438,595.0313 1171.0859,595.2656 Q1170.8281,595.5 1170.2188,595.5 L1167.9219,595.5 Q1167.3125,595.5 1167.0469,595.2656 Q1166.7813,595.0313 1166.7813,594.6406 Q1166.7813,594.2656 1167.0469,594.0313 Q1167.3125,593.7969 1167.9219,593.7969 L1168.3438,593.7969 L1167.9375,592.7656 Z M1167.2188,591.0625 L1165.8594,587.6875 L1164.4844,591.0625 L1167.2188,591.0625 Z " fill="#000000"/><text fill="#000000" font-family="sans-serif" font-size="14" font-style="italic" lengthAdjust="spacing" textLength="56" x="1186.25" y="596.7285">Creature</text><line style="stroke:#181818;stroke-width:0.5;" x1="1006" x2="1390" y1="607" y2="607"/><polygon fill="none" points="1016,616.3047,1020,620.3047,1016,624.3047,1012,620.3047" style="stroke:#B38D22;stroke-width:1.0;"/><text fill="#000000" font-family="sans-serif" font-size="14" lengthAdjust="spacing" textLength="127" x="1025" y="625.5332">enum CreatureType</text><rect fill="none" height="6" style="stroke:#C82930;stroke-width:1.0;" width="6" x="1013" y="635.9141"/><text fill="#000000" font-family="sans-serif" font-size="14" lengthAdjust="spacing" textLength="76" x="1025" y="643.1426">String name</text><rect fill="none" height="6" style="stroke:#C82930;stroke-width:1.0;" width="6" x="1013" y="653.5234"/><text fill="#000000" font-family="sans-serif" font-size="14" lengthAdjust="spacing" textLength="76" x="1025" y="660.752">int lifePoints</text><rect fill="none" height="6" style="stroke:#C82930;stroke-width:1.0;" width="6" x="1013" y="671.1328"/><text fill="#000000" font-family="sans-serif" font-size="14" lengthAdjust="spacing" textLength="126" x="1025" y="678.3613">int shieldResistance</text><line style="stroke:#181818;stroke-width:0.5;" x1="1006" x2="1390" y1="685.4375" y2="685.4375"/><ellipse cx="1016" cy="699.7422" fill="#84BE84" rx="3" ry="3" style="stroke:#038048;stroke-width:1.0;"/><text fill="#000000" font-family="sans-serif" font-size="14" lengthAdjust="spacing" textLength="360" x="1025" y="703.9707">Creature(String name, int lifePoints, int shieldResistance)</text><ellipse cx="1016" cy="717.3516" fill="#84BE84" rx="3" ry="3" style="stroke:#038048;stroke-width:1.0;"/><text fill="#000000" font-family="sans-serif" font-size="14" lengthAdjust="spacing" textLength="168" x="1025" y="721.5801">abstract boolean isHeroe()</text><ellipse cx="1016" cy="734.9609" fill="#84BE84" rx="3" ry="3" style="stroke:#038048;stroke-width:1.0;"/><text fill="#000000" font-family="sans-serif" font-size="14" lengthAdjust="spacing" textLength="301" x="1025" y="739.1895">abstract int attackOpponent(Creature Creature)</text><ellipse cx="1016" cy="752.5703" fill="#84BE84" rx="3" ry="3" style="stroke:#038048;stroke-width:1.0;"/><text fill="#000000" font-family="sans-serif" font-size="14" lengthAdjust="spacing" textLength="244" x="1025" y="756.7988">abstract int defend(Creature Creature)</text><ellipse cx="1016" cy="770.1797" fill="#84BE84" rx="3" ry="3" style="stroke:#038048;stroke-width:1.0;"/><text fill="#000000" font-family="sans-serif" font-size="14" lengthAdjust="spacing" textLength="153" x="1025" y="774.4082">abstract int throwDices()</text><ellipse cx="1016" cy="787.7891" fill="#84BE84" rx="3" ry="3" style="stroke:#038048;stroke-width:1.0;"/><text fill="#000000" font-family="sans-serif" font-size="14" lengthAdjust="spacing" textLength="192" x="1025" y="792.0176">abstract int getCreatureType()</text></g><!--MD5=[31554468d514a5c554004da71d574877]
class Heroe--><g id="elem_Heroe"><rect codeLine="62" fill="#F1F1F1" height="171.2656" id="Heroe" rx="2.5" ry="2.5" style="stroke:#181818;stroke-width:0.5;" width="327" x="488.5" y="859"/><ellipse cx="628.25" cy="875" fill="#A9DCDF" rx="11" ry="11" style="stroke:#181818;stroke-width:1.0;"/><path d="M630.4375,876.7656 L626.2969,876.7656 L625.875,877.7969 L626.2969,877.7969 Q626.9063,877.7969 627.1719,878.0313 Q627.4375,878.2656 627.4375,878.6563 Q627.4375,879.0313 627.1719,879.2656 Q626.9063,879.5 626.2969,879.5 L624,879.5 Q623.3906,879.5 623.1328,879.2656 Q622.875,879.0313 622.875,878.6406 Q622.875,878.2656 623.1484,878.0234 Q623.4219,877.7813 624.0469,877.7969 L626.7188,871.1406 L625.6094,871.1406 Q625,871.1406 624.7344,870.9063 Q624.4688,870.6719 624.4688,870.2813 Q624.4688,869.9063 624.7344,869.6719 Q625,869.4375 625.6094,869.4375 L629.2813,869.4375 L632.6719,877.7969 Q633.2656,877.7969 633.4531,877.9375 Q633.8438,878.2031 633.8438,878.6563 Q633.8438,879.0313 633.5859,879.2656 Q633.3281,879.5 632.7188,879.5 L630.4219,879.5 Q629.8125,879.5 629.5469,879.2656 Q629.2813,879.0313 629.2813,878.6406 Q629.2813,878.2656 629.5469,878.0313 Q629.8125,877.7969 630.4219,877.7969 L630.8438,877.7969 L630.4375,876.7656 Z M629.7188,875.0625 L628.3594,871.6875 L626.9844,875.0625 L629.7188,875.0625 Z " fill="#000000"/><text fill="#000000" font-family="sans-serif" font-size="14" font-style="italic" lengthAdjust="spacing" textLength="39" x="648.75" y="880.7285">Heroe</text><line style="stroke:#181818;stroke-width:0.5;" x1="489.5" x2="814.5" y1="891" y2="891"/><line style="stroke:#181818;stroke-width:0.5;" x1="489.5" x2="814.5" y1="899" y2="899"/><ellipse cx="499.5" cy="913.3047" fill="#84BE84" rx="3" ry="3" style="stroke:#038048;stroke-width:1.0;"/><text fill="#000000" font-family="sans-serif" font-size="14" lengthAdjust="spacing" textLength="113" x="508.5" y="917.5332">boolean isHeroe()</text><ellipse cx="499.5" cy="930.9141" fill="#84BE84" rx="3" ry="3" style="stroke:#038048;stroke-width:1.0;"/><text fill="#000000" font-family="sans-serif" font-size="14" lengthAdjust="spacing" textLength="98" x="508.5" y="935.1426">int throwDices()</text><ellipse cx="499.5" cy="948.5234" fill="#84BE84" rx="3" ry="3" style="stroke:#038048;stroke-width:1.0;"/><text fill="#000000" font-family="sans-serif" font-size="14" lengthAdjust="spacing" textLength="268" x="508.5" y="952.752">abstract boolean fears(Creature Creature)</text><ellipse cx="499.5" cy="966.1328" fill="#84BE84" rx="3" ry="3" style="stroke:#038048;stroke-width:1.0;"/><text fill="#000000" font-family="sans-serif" font-size="14" lengthAdjust="spacing" textLength="271" x="508.5" y="970.3613">abstract boolean hates(Creature Creature)</text><ellipse cx="499.5" cy="983.7422" fill="#84BE84" rx="3" ry="3" style="stroke:#038048;stroke-width:1.0;"/><text fill="#000000" font-family="sans-serif" font-size="14" lengthAdjust="spacing" textLength="301" x="508.5" y="987.9707">abstract int attackOpponent(Creature Creature)</text><ellipse cx="499.5" cy="1001.3516" fill="#84BE84" rx="3" ry="3" style="stroke:#038048;stroke-width:1.0;"/><text fill="#000000" font-family="sans-serif" font-size="14" lengthAdjust="spacing" textLength="244" x="508.5" y="1005.5801">abstract int defend(Creature Creature)</text><ellipse cx="499.5" cy="1018.9609" fill="#84BE84" rx="3" ry="3" style="stroke:#038048;stroke-width:1.0;"/><text fill="#000000" font-family="sans-serif" font-size="14" lengthAdjust="spacing" textLength="192" x="508.5" y="1023.1895">abstract int getCreatureType()</text></g><!--MD5=[2e69174041fa7eb3bebc5f460ee56291]
class Human--><g id="elem_Human"><rect codeLine="72" fill="#F1F1F1" height="136.0469" id="Human" rx="2.5" ry="2.5" style="stroke:#181818;stroke-width:0.5;" width="272" x="70" y="1090"/><ellipse cx="179.75" cy="1106" fill="#ADD1B2" rx="11" ry="11" style="stroke:#181818;stroke-width:1.0;"/><path d="M182.5156,1101.875 Q182.6719,1101.6563 182.8594,1101.5469 Q183.0469,1101.4375 183.2656,1101.4375 Q183.6406,1101.4375 183.875,1101.6953 Q184.1094,1101.9531 184.1094,1102.5625 L184.1094,1104.0156 Q184.1094,1104.625 183.875,1104.8906 Q183.6406,1105.1563 183.2656,1105.1563 Q182.9219,1105.1563 182.7188,1104.9531 Q182.5156,1104.7656 182.4063,1104.25 Q182.3594,1103.8906 182.1719,1103.7031 Q181.8438,1103.3281 181.2344,1103.1094 Q180.625,1102.8906 180,1102.8906 Q179.2344,1102.8906 178.6016,1103.2188 Q177.9688,1103.5469 177.4766,1104.2969 Q176.9844,1105.0469 176.9844,1106.0781 L176.9844,1107.1719 Q176.9844,1108.4063 177.875,1109.2266 Q178.7656,1110.0469 180.3594,1110.0469 Q181.2969,1110.0469 181.9531,1109.7969 Q182.3438,1109.6406 182.7656,1109.2031 Q183.0313,1108.9375 183.1797,1108.8594 Q183.3281,1108.7813 183.5313,1108.7813 Q183.8594,1108.7813 184.1172,1109.0391 Q184.375,1109.2969 184.375,1109.6406 Q184.375,1109.9844 184.0313,1110.3906 Q183.5313,1110.9688 182.7344,1111.2969 Q181.6563,1111.75 180.3594,1111.75 Q178.8438,1111.75 177.6406,1111.125 Q176.6563,1110.625 175.9688,1109.5547 Q175.2813,1108.4844 175.2813,1107.2031 L175.2813,1106.0469 Q175.2813,1104.7188 175.8984,1103.5703 Q176.5156,1102.4219 177.6094,1101.8047 Q178.7031,1101.1875 179.9375,1101.1875 Q180.6719,1101.1875 181.3203,1101.3516 Q181.9688,1101.5156 182.5156,1101.875 Z " fill="#000000"/><text fill="#000000" font-family="sans-serif" font-size="14" lengthAdjust="spacing" textLength="44" x="200.25" y="1111.7285">Human</text><line style="stroke:#181818;stroke-width:0.5;" x1="71" x2="341" y1="1122" y2="1122"/><line style="stroke:#181818;stroke-width:0.5;" x1="71" x2="341" y1="1130" y2="1130"/><ellipse cx="81" cy="1144.3047" fill="#84BE84" rx="3" ry="3" style="stroke:#038048;stroke-width:1.0;"/><text fill="#000000" font-family="sans-serif" font-size="14" lengthAdjust="spacing" textLength="137" x="90" y="1148.5332">int getCreatureType()</text><ellipse cx="81" cy="1161.9141" fill="#84BE84" rx="3" ry="3" style="stroke:#038048;stroke-width:1.0;"/><text fill="#000000" font-family="sans-serif" font-size="14" lengthAdjust="spacing" textLength="246" x="90" y="1166.1426">int attackOpponent(Creature Creature)</text><ellipse cx="81" cy="1179.5234" fill="#84BE84" rx="3" ry="3" style="stroke:#038048;stroke-width:1.0;"/><text fill="#000000" font-family="sans-serif" font-size="14" lengthAdjust="spacing" textLength="189" x="90" y="1183.752">int defend(Creature Creature)</text><ellipse cx="81" cy="1197.1328" fill="#84BE84" rx="3" ry="3" style="stroke:#038048;stroke-width:1.0;"/><text fill="#000000" font-family="sans-serif" font-size="14" lengthAdjust="spacing" textLength="213" x="90" y="1201.3613">boolean fears(Creature Creature)</text><ellipse cx="81" cy="1214.7422" fill="#84BE84" rx="3" ry="3" style="stroke:#038048;stroke-width:1.0;"/><text fill="#000000" font-family="sans-serif" font-size="14" lengthAdjust="spacing" textLength="216" x="90" y="1218.9707">boolean hates(Creature Creature)</text></g><!--MD5=[1add97151753c0fb34b998a49b664f10]
class Elf--><g id="elem_Elf"><rect codeLine="80" fill="#F1F1F1" height="136.0469" id="Elf" rx="2.5" ry="2.5" style="stroke:#181818;stroke-width:0.5;" width="272" x="377" y="1090"/><ellipse cx="500.75" cy="1106" fill="#ADD1B2" rx="11" ry="11" style="stroke:#181818;stroke-width:1.0;"/><path d="M503.5156,1101.875 Q503.6719,1101.6563 503.8594,1101.5469 Q504.0469,1101.4375 504.2656,1101.4375 Q504.6406,1101.4375 504.875,1101.6953 Q505.1094,1101.9531 505.1094,1102.5625 L505.1094,1104.0156 Q505.1094,1104.625 504.875,1104.8906 Q504.6406,1105.1563 504.2656,1105.1563 Q503.9219,1105.1563 503.7188,1104.9531 Q503.5156,1104.7656 503.4063,1104.25 Q503.3594,1103.8906 503.1719,1103.7031 Q502.8438,1103.3281 502.2344,1103.1094 Q501.625,1102.8906 501,1102.8906 Q500.2344,1102.8906 499.6016,1103.2188 Q498.9688,1103.5469 498.4766,1104.2969 Q497.9844,1105.0469 497.9844,1106.0781 L497.9844,1107.1719 Q497.9844,1108.4063 498.875,1109.2266 Q499.7656,1110.0469 501.3594,1110.0469 Q502.2969,1110.0469 502.9531,1109.7969 Q503.3438,1109.6406 503.7656,1109.2031 Q504.0313,1108.9375 504.1797,1108.8594 Q504.3281,1108.7813 504.5313,1108.7813 Q504.8594,1108.7813 505.1172,1109.0391 Q505.375,1109.2969 505.375,1109.6406 Q505.375,1109.9844 505.0313,1110.3906 Q504.5313,1110.9688 503.7344,1111.2969 Q502.6563,1111.75 501.3594,1111.75 Q499.8438,1111.75 498.6406,1111.125 Q497.6563,1110.625 496.9688,1109.5547 Q496.2813,1108.4844 496.2813,1107.2031 L496.2813,1106.0469 Q496.2813,1104.7188 496.8984,1103.5703 Q497.5156,1102.4219 498.6094,1101.8047 Q499.7031,1101.1875 500.9375,1101.1875 Q501.6719,1101.1875 502.3203,1101.3516 Q502.9688,1101.5156 503.5156,1101.875 Z " fill="#000000"/><text fill="#000000" font-family="sans-serif" font-size="14" lengthAdjust="spacing" textLength="16" x="521.25" y="1111.7285">Elf</text><line style="stroke:#181818;stroke-width:0.5;" x1="378" x2="648" y1="1122" y2="1122"/><line style="stroke:#181818;stroke-width:0.5;" x1="378" x2="648" y1="1130" y2="1130"/><ellipse cx="388" cy="1144.3047" fill="#84BE84" rx="3" ry="3" style="stroke:#038048;stroke-width:1.0;"/><text fill="#000000" font-family="sans-serif" font-size="14" lengthAdjust="spacing" textLength="137" x="397" y="1148.5332">int getCreatureType()</text><ellipse cx="388" cy="1161.9141" fill="#84BE84" rx="3" ry="3" style="stroke:#038048;stroke-width:1.0;"/><text fill="#000000" font-family="sans-serif" font-size="14" lengthAdjust="spacing" textLength="246" x="397" y="1166.1426">int attackOpponent(Creature Creature)</text><ellipse cx="388" cy="1179.5234" fill="#84BE84" rx="3" ry="3" style="stroke:#038048;stroke-width:1.0;"/><text fill="#000000" font-family="sans-serif" font-size="14" lengthAdjust="spacing" textLength="189" x="397" y="1183.752">int defend(Creature Creature)</text><ellipse cx="388" cy="1197.1328" fill="#84BE84" rx="3" ry="3" style="stroke:#038048;stroke-width:1.0;"/><text fill="#000000" font-family="sans-serif" font-size="14" lengthAdjust="spacing" textLength="213" x="397" y="1201.3613">boolean fears(Creature Creature)</text><ellipse cx="388" cy="1214.7422" fill="#84BE84" rx="3" ry="3" style="stroke:#038048;stroke-width:1.0;"/><text fill="#000000" font-family="sans-serif" font-size="14" lengthAdjust="spacing" textLength="216" x="397" y="1218.9707">boolean hates(Creature Creature)</text></g><!--MD5=[3b6ab42e97f9cd82844818737ead6040]
class Hobbit--><g id="elem_Hobbit"><rect codeLine="88" fill="#F1F1F1" height="136.0469" id="Hobbit" rx="2.5" ry="2.5" style="stroke:#181818;stroke-width:0.5;" width="272" x="684" y="1090"/><ellipse cx="795.75" cy="1106" fill="#ADD1B2" rx="11" ry="11" style="stroke:#181818;stroke-width:1.0;"/><path d="M798.5156,1101.875 Q798.6719,1101.6563 798.8594,1101.5469 Q799.0469,1101.4375 799.2656,1101.4375 Q799.6406,1101.4375 799.875,1101.6953 Q800.1094,1101.9531 800.1094,1102.5625 L800.1094,1104.0156 Q800.1094,1104.625 799.875,1104.8906 Q799.6406,1105.1563 799.2656,1105.1563 Q798.9219,1105.1563 798.7188,1104.9531 Q798.5156,1104.7656 798.4063,1104.25 Q798.3594,1103.8906 798.1719,1103.7031 Q797.8438,1103.3281 797.2344,1103.1094 Q796.625,1102.8906 796,1102.8906 Q795.2344,1102.8906 794.6016,1103.2188 Q793.9688,1103.5469 793.4766,1104.2969 Q792.9844,1105.0469 792.9844,1106.0781 L792.9844,1107.1719 Q792.9844,1108.4063 793.875,1109.2266 Q794.7656,1110.0469 796.3594,1110.0469 Q797.2969,1110.0469 797.9531,1109.7969 Q798.3438,1109.6406 798.7656,1109.2031 Q799.0313,1108.9375 799.1797,1108.8594 Q799.3281,1108.7813 799.5313,1108.7813 Q799.8594,1108.7813 800.1172,1109.0391 Q800.375,1109.2969 800.375,1109.6406 Q800.375,1109.9844 800.0313,1110.3906 Q799.5313,1110.9688 798.7344,1111.2969 Q797.6563,1111.75 796.3594,1111.75 Q794.8438,1111.75 793.6406,1111.125 Q792.6563,1110.625 791.9688,1109.5547 Q791.2813,1108.4844 791.2813,1107.2031 L791.2813,1106.0469 Q791.2813,1104.7188 791.8984,1103.5703 Q792.5156,1102.4219 793.6094,1101.8047 Q794.7031,1101.1875 795.9375,1101.1875 Q796.6719,1101.1875 797.3203,1101.3516 Q797.9688,1101.5156 798.5156,1101.875 Z " fill="#000000"/><text fill="#000000" font-family="sans-serif" font-size="14" lengthAdjust="spacing" textLength="40" x="816.25" y="1111.7285">Hobbit</text><line style="stroke:#181818;stroke-width:0.5;" x1="685" x2="955" y1="1122" y2="1122"/><line style="stroke:#181818;stroke-width:0.5;" x1="685" x2="955" y1="1130" y2="1130"/><ellipse cx="695" cy="1144.3047" fill="#84BE84" rx="3" ry="3" style="stroke:#038048;stroke-width:1.0;"/><text fill="#000000" font-family="sans-serif" font-size="14" lengthAdjust="spacing" textLength="137" x="704" y="1148.5332">int getCreatureType()</text><ellipse cx="695" cy="1161.9141" fill="#84BE84" rx="3" ry="3" style="stroke:#038048;stroke-width:1.0;"/><text fill="#000000" font-family="sans-serif" font-size="14" lengthAdjust="spacing" textLength="246" x="704" y="1166.1426">int attackOpponent(Creature Creature)</text><ellipse cx="695" cy="1179.5234" fill="#84BE84" rx="3" ry="3" style="stroke:#038048;stroke-width:1.0;"/><text fill="#000000" font-family="sans-serif" font-size="14" lengthAdjust="spacing" textLength="189" x="704" y="1183.752">int defend(Creature Creature)</text><ellipse cx="695" cy="1197.1328" fill="#84BE84" rx="3" ry="3" style="stroke:#038048;stroke-width:1.0;"/><text fill="#000000" font-family="sans-serif" font-size="14" lengthAdjust="spacing" textLength="213" x="704" y="1201.3613">boolean fears(Creature Creature)</text><ellipse cx="695" cy="1214.7422" fill="#84BE84" rx="3" ry="3" style="stroke:#038048;stroke-width:1.0;"/><text fill="#000000" font-family="sans-serif" font-size="14" lengthAdjust="spacing" textLength="216" x="704" y="1218.9707">boolean hates(Creature Creature)</text></g><!--MD5=[74f5148b25996fb58aa9453688e9dbab]
class Beast--><g id="elem_Beast"><rect codeLine="98" fill="#F1F1F1" height="153.6563" id="Beast" rx="2.5" ry="2.5" style="stroke:#181818;stroke-width:0.5;" width="327" x="1034.5" y="867.5"/><ellipse cx="1175.75" cy="883.5" fill="#A9DCDF" rx="11" ry="11" style="stroke:#181818;stroke-width:1.0;"/><path d="M1177.9375,885.2656 L1173.7969,885.2656 L1173.375,886.2969 L1173.7969,886.2969 Q1174.4063,886.2969 1174.6719,886.5313 Q1174.9375,886.7656 1174.9375,887.1563 Q1174.9375,887.5313 1174.6719,887.7656 Q1174.4063,888 1173.7969,888 L1171.5,888 Q1170.8906,888 1170.6328,887.7656 Q1170.375,887.5313 1170.375,887.1406 Q1170.375,886.7656 1170.6484,886.5234 Q1170.9219,886.2813 1171.5469,886.2969 L1174.2188,879.6406 L1173.1094,879.6406 Q1172.5,879.6406 1172.2344,879.4063 Q1171.9688,879.1719 1171.9688,878.7813 Q1171.9688,878.4063 1172.2344,878.1719 Q1172.5,877.9375 1173.1094,877.9375 L1176.7813,877.9375 L1180.1719,886.2969 Q1180.7656,886.2969 1180.9531,886.4375 Q1181.3438,886.7031 1181.3438,887.1563 Q1181.3438,887.5313 1181.0859,887.7656 Q1180.8281,888 1180.2188,888 L1177.9219,888 Q1177.3125,888 1177.0469,887.7656 Q1176.7813,887.5313 1176.7813,887.1406 Q1176.7813,886.7656 1177.0469,886.5313 Q1177.3125,886.2969 1177.9219,886.2969 L1178.3438,886.2969 L1177.9375,885.2656 Z M1177.2188,883.5625 L1175.8594,880.1875 L1174.4844,883.5625 L1177.2188,883.5625 Z " fill="#000000"/><text fill="#000000" font-family="sans-serif" font-size="14" font-style="italic" lengthAdjust="spacing" textLength="36" x="1196.25" y="889.2285">Beast</text><line style="stroke:#181818;stroke-width:0.5;" x1="1035.5" x2="1360.5" y1="899.5" y2="899.5"/><line style="stroke:#181818;stroke-width:0.5;" x1="1035.5" x2="1360.5" y1="907.5" y2="907.5"/><ellipse cx="1045.5" cy="921.8047" fill="#84BE84" rx="3" ry="3" style="stroke:#038048;stroke-width:1.0;"/><text fill="#000000" font-family="sans-serif" font-size="14" lengthAdjust="spacing" textLength="113" x="1054.5" y="926.0332">boolean isHeroe()</text><ellipse cx="1045.5" cy="939.4141" fill="#84BE84" rx="3" ry="3" style="stroke:#038048;stroke-width:1.0;"/><text fill="#000000" font-family="sans-serif" font-size="14" lengthAdjust="spacing" textLength="98" x="1054.5" y="943.6426">int throwDices()</text><ellipse cx="1045.5" cy="957.0234" fill="#84BE84" rx="3" ry="3" style="stroke:#038048;stroke-width:1.0;"/><text fill="#000000" font-family="sans-serif" font-size="14" lengthAdjust="spacing" textLength="190" x="1054.5" y="961.252">abstract boolean extraPower()</text><ellipse cx="1045.5" cy="974.6328" fill="#84BE84" rx="3" ry="3" style="stroke:#038048;stroke-width:1.0;"/><text fill="#000000" font-family="sans-serif" font-size="14" lengthAdjust="spacing" textLength="301" x="1054.5" y="978.8613">abstract int attackOpponent(Creature Creature)</text><ellipse cx="1045.5" cy="992.2422" fill="#84BE84" rx="3" ry="3" style="stroke:#038048;stroke-width:1.0;"/><text fill="#000000" font-family="sans-serif" font-size="14" lengthAdjust="spacing" textLength="244" x="1054.5" y="996.4707">abstract int defend(Creature Creature)</text><ellipse cx="1045.5" cy="1009.8516" fill="#84BE84" rx="3" ry="3" style="stroke:#038048;stroke-width:1.0;"/><text fill="#000000" font-family="sans-serif" font-size="14" lengthAdjust="spacing" textLength="192" x="1054.5" y="1014.0801">abstract int getCreatureType()</text></g><!--MD5=[93a60ddb14422ad2d71d3d461138a146]
class Orc--><g id="elem_Orc"><rect codeLine="107" fill="#F1F1F1" height="118.4375" id="Orc" rx="2.5" ry="2.5" style="stroke:#181818;stroke-width:0.5;" width="272" x="1012" y="1099"/><ellipse cx="1132.25" cy="1115" fill="#ADD1B2" rx="11" ry="11" style="stroke:#181818;stroke-width:1.0;"/><path d="M1135.0156,1110.875 Q1135.1719,1110.6563 1135.3594,1110.5469 Q1135.5469,1110.4375 1135.7656,1110.4375 Q1136.1406,1110.4375 1136.375,1110.6953 Q1136.6094,1110.9531 1136.6094,1111.5625 L1136.6094,1113.0156 Q1136.6094,1113.625 1136.375,1113.8906 Q1136.1406,1114.1563 1135.7656,1114.1563 Q1135.4219,1114.1563 1135.2188,1113.9531 Q1135.0156,1113.7656 1134.9063,1113.25 Q1134.8594,1112.8906 1134.6719,1112.7031 Q1134.3438,1112.3281 1133.7344,1112.1094 Q1133.125,1111.8906 1132.5,1111.8906 Q1131.7344,1111.8906 1131.1016,1112.2188 Q1130.4688,1112.5469 1129.9766,1113.2969 Q1129.4844,1114.0469 1129.4844,1115.0781 L1129.4844,1116.1719 Q1129.4844,1117.4063 1130.375,1118.2266 Q1131.2656,1119.0469 1132.8594,1119.0469 Q1133.7969,1119.0469 1134.4531,1118.7969 Q1134.8438,1118.6406 1135.2656,1118.2031 Q1135.5313,1117.9375 1135.6797,1117.8594 Q1135.8281,1117.7813 1136.0313,1117.7813 Q1136.3594,1117.7813 1136.6172,1118.0391 Q1136.875,1118.2969 1136.875,1118.6406 Q1136.875,1118.9844 1136.5313,1119.3906 Q1136.0313,1119.9688 1135.2344,1120.2969 Q1134.1563,1120.75 1132.8594,1120.75 Q1131.3438,1120.75 1130.1406,1120.125 Q1129.1563,1119.625 1128.4688,1118.5547 Q1127.7813,1117.4844 1127.7813,1116.2031 L1127.7813,1115.0469 Q1127.7813,1113.7188 1128.3984,1112.5703 Q1129.0156,1111.4219 1130.1094,1110.8047 Q1131.2031,1110.1875 1132.4375,1110.1875 Q1133.1719,1110.1875 1133.8203,1110.3516 Q1134.4688,1110.5156 1135.0156,1110.875 Z " fill="#000000"/><text fill="#000000" font-family="sans-serif" font-size="14" lengthAdjust="spacing" textLength="23" x="1152.75" y="1120.7285">Orc</text><line style="stroke:#181818;stroke-width:0.5;" x1="1013" x2="1283" y1="1131" y2="1131"/><line style="stroke:#181818;stroke-width:0.5;" x1="1013" x2="1283" y1="1139" y2="1139"/><ellipse cx="1023" cy="1153.3047" fill="#84BE84" rx="3" ry="3" style="stroke:#038048;stroke-width:1.0;"/><text fill="#000000" font-family="sans-serif" font-size="14" lengthAdjust="spacing" textLength="135" x="1032" y="1157.5332">boolean extraPower()</text><ellipse cx="1023" cy="1170.9141" fill="#84BE84" rx="3" ry="3" style="stroke:#038048;stroke-width:1.0;"/><text fill="#000000" font-family="sans-serif" font-size="14" lengthAdjust="spacing" textLength="246" x="1032" y="1175.1426">int attackOpponent(Creature Creature)</text><ellipse cx="1023" cy="1188.5234" fill="#84BE84" rx="3" ry="3" style="stroke:#038048;stroke-width:1.0;"/><text fill="#000000" font-family="sans-serif" font-size="14" lengthAdjust="spacing" textLength="189" x="1032" y="1192.752">int defend(Creature Creature)</text><ellipse cx="1023" cy="1206.1328" fill="#84BE84" rx="3" ry="3" style="stroke:#038048;stroke-width:1.0;"/><text fill="#000000" font-family="sans-serif" font-size="14" lengthAdjust="spacing" textLength="137" x="1032" y="1210.3613">int getCreatureType()</text></g><!--MD5=[4835e745e662bfe0926c2656c60a5d05]
class Goblin--><g id="elem_Goblin"><rect codeLine="114" fill="#F1F1F1" height="118.4375" id="Goblin" rx="2.5" ry="2.5" style="stroke:#181818;stroke-width:0.5;" width="272" x="1319" y="1099"/><ellipse cx="1430.25" cy="1115" fill="#ADD1B2" rx="11" ry="11" style="stroke:#181818;stroke-width:1.0;"/><path d="M1433.0156,1110.875 Q1433.1719,1110.6563 1433.3594,1110.5469 Q1433.5469,1110.4375 1433.7656,1110.4375 Q1434.1406,1110.4375 1434.375,1110.6953 Q1434.6094,1110.9531 1434.6094,1111.5625 L1434.6094,1113.0156 Q1434.6094,1113.625 1434.375,1113.8906 Q1434.1406,1114.1563 1433.7656,1114.1563 Q1433.4219,1114.1563 1433.2188,1113.9531 Q1433.0156,1113.7656 1432.9063,1113.25 Q1432.8594,1112.8906 1432.6719,1112.7031 Q1432.3438,1112.3281 1431.7344,1112.1094 Q1431.125,1111.8906 1430.5,1111.8906 Q1429.7344,1111.8906 1429.1016,1112.2188 Q1428.4688,1112.5469 1427.9766,1113.2969 Q1427.4844,1114.0469 1427.4844,1115.0781 L1427.4844,1116.1719 Q1427.4844,1117.4063 1428.375,1118.2266 Q1429.2656,1119.0469 1430.8594,1119.0469 Q1431.7969,1119.0469 1432.4531,1118.7969 Q1432.8438,1118.6406 1433.2656,1118.2031 Q1433.5313,1117.9375 1433.6797,1117.8594 Q1433.8281,1117.7813 1434.0313,1117.7813 Q1434.3594,1117.7813 1434.6172,1118.0391 Q1434.875,1118.2969 1434.875,1118.6406 Q1434.875,1118.9844 1434.5313,1119.3906 Q1434.0313,1119.9688 1433.2344,1120.2969 Q1432.1563,1120.75 1430.8594,1120.75 Q1429.3438,1120.75 1428.1406,1120.125 Q1427.1563,1119.625 1426.4688,1118.5547 Q1425.7813,1117.4844 1425.7813,1116.2031 L1425.7813,1115.0469 Q1425.7813,1113.7188 1426.3984,1112.5703 Q1427.0156,1111.4219 1428.1094,1110.8047 Q1429.2031,1110.1875 1430.4375,1110.1875 Q1431.1719,1110.1875 1431.8203,1110.3516 Q1432.4688,1110.5156 1433.0156,1110.875 Z " fill="#000000"/><text fill="#000000" font-family="sans-serif" font-size="14" lengthAdjust="spacing" textLength="41" x="1450.75" y="1120.7285">Goblin</text><line style="stroke:#181818;stroke-width:0.5;" x1="1320" x2="1590" y1="1131" y2="1131"/><line style="stroke:#181818;stroke-width:0.5;" x1="1320" x2="1590" y1="1139" y2="1139"/><ellipse cx="1330" cy="1153.3047" fill="#84BE84" rx="3" ry="3" style="stroke:#038048;stroke-width:1.0;"/><text fill="#000000" font-family="sans-serif" font-size="14" lengthAdjust="spacing" textLength="135" x="1339" y="1157.5332">boolean extraPower()</text><ellipse cx="1330" cy="1170.9141" fill="#84BE84" rx="3" ry="3" style="stroke:#038048;stroke-width:1.0;"/><text fill="#000000" font-family="sans-serif" font-size="14" lengthAdjust="spacing" textLength="246" x="1339" y="1175.1426">int attackOpponent(Creature Creature)</text><ellipse cx="1330" cy="1188.5234" fill="#84BE84" rx="3" ry="3" style="stroke:#038048;stroke-width:1.0;"/><text fill="#000000" font-family="sans-serif" font-size="14" lengthAdjust="spacing" textLength="189" x="1339" y="1192.752">int defend(Creature Creature)</text><ellipse cx="1330" cy="1206.1328" fill="#84BE84" rx="3" ry="3" style="stroke:#038048;stroke-width:1.0;"/><text fill="#000000" font-family="sans-serif" font-size="14" lengthAdjust="spacing" textLength="137" x="1339" y="1210.3613">int getCreatureType()</text></g><!--MD5=[9b2d2c8ec68daa05ecabf5edaa4d6a9c]
reverse link LordOfTheRings to Turn--><g id="link_LordOfTheRings_Turn"><path codeLine="144" d="M1216.76,226.27 C1214.49,227.87 1212.24,229.45 1210,231 C1181.29,250.95 1150.37,271.43 1120.05,290.98 " fill="none" id="LordOfTheRings-backto-Turn" style="stroke:#181818;stroke-width:1.0;"/><polygon fill="#181818" points="1227.42,218.67,1220.2124,218.8942,1217.6472,225.6336,1224.8548,225.4094,1227.42,218.67" style="stroke:#181818;stroke-width:1.0;"/></g><!--MD5=[6cba6bdeebff1f5b0e96701b33e76a6f]
reverse link LordOfTheRings to Army--><g id="link_LordOfTheRings_Army"><path codeLine="145" d="M1332.6,244.51 C1332.47,278.48 1332.33,314.76 1332.22,343.92 " fill="none" id="LordOfTheRings-backto-Army" style="stroke:#181818;stroke-width:1.0;"/><polygon fill="#181818" points="1332.65,231.13,1328.6302,237.1168,1332.6104,243.1299,1336.6302,237.1432,1332.65,231.13" style="stroke:#181818;stroke-width:1.0;"/></g><!--MD5=[603b8fa1152f5bc3632444de4baa1458]
reverse link Army to Creature--><g id="link_Army_Creature"><path codeLine="147" d="M1298.79,473.9 C1284.3,504.39 1266.95,540.9 1250.76,574.97 " fill="none" id="Army-backto-Creature" style="stroke:#181818;stroke-width:1.0;"/><polygon fill="#181818" points="1304.4,462.09,1298.2142,465.7962,1299.2562,472.9316,1305.442,469.2254,1304.4,462.09" style="stroke:#181818;stroke-width:1.0;"/></g><!--MD5=[6732029c5b98e91fcfddbc3c52e86667]
reverse link Creature to Heroe--><g id="link_Creature_Heroe"><path codeLine="149" d="M986.46,786.99 C929.76,813.52 869.32,841.81 815.63,866.93 " fill="none" id="Creature-backto-Heroe" style="stroke:#181818;stroke-width:1.0;"/><polygon fill="none" points="983.65,780.58,1004.73,778.44,989.58,793.26,983.65,780.58" style="stroke:#181818;stroke-width:1.0;"/></g><!--MD5=[e0aecb2dbe8de6a7669d0c7874b3b0eb]
reverse link Creature to Beast--><g id="link_Creature_Beast"><path codeLine="150" d="M1198,819.37 C1198,835.84 1198,852.22 1198,867.43 " fill="none" id="Creature-backto-Beast" style="stroke:#181818;stroke-width:1.0;"/><polygon fill="none" points="1191,819.32,1198,799.32,1205,819.32,1191,819.32" style="stroke:#181818;stroke-width:1.0;"/></g><!--MD5=[23a32f8bdfde595df3595c4264389928]
reverse link Heroe to Human--><g id="link_Heroe_Human"><path codeLine="152" d="M470.25,1031.69 C427.42,1052 382.49,1073.31 342.07,1092.47 " fill="none" id="Heroe-backto-Human" style="stroke:#181818;stroke-width:1.0;"/><polygon fill="none" points="467.39,1025.3,488.46,1023.05,473.39,1037.95,467.39,1025.3" style="stroke:#181818;stroke-width:1.0;"/></g><!--MD5=[a6e273bf561dffabf099a11570a78ebc]
reverse link Heroe to Elf--><g id="link_Heroe_Elf"><path codeLine="153" d="M585.31,1046.98 C575.74,1061.54 566.1,1076.21 557.11,1089.88 " fill="none" id="Heroe-backto-Elf" style="stroke:#181818;stroke-width:1.0;"/><polygon fill="none" points="579.63,1042.87,596.46,1030,591.33,1050.56,579.63,1042.87" style="stroke:#181818;stroke-width:1.0;"/></g><!--MD5=[b9524c79acf6325b191a6fe214ac262c]
reverse link Heroe to Hobbit--><g id="link_Heroe_Hobbit"><path codeLine="154" d="M731.85,1046.03 C743.67,1060.9 755.59,1075.91 766.69,1089.88 " fill="none" id="Heroe-backto-Hobbit" style="stroke:#181818;stroke-width:1.0;"/><polygon fill="none" points="726.08,1050.02,719.12,1030,737.04,1041.31,726.08,1050.02" style="stroke:#181818;stroke-width:1.0;"/></g><!--MD5=[a84e90eb2eee4a7d12877281cdbfee5a]
reverse link Beast to Orc--><g id="link_Beast_Orc"><path codeLine="156" d="M1175.35,1041.33 C1170.71,1060.95 1165.96,1081.04 1161.75,1098.85 " fill="none" id="Beast-backto-Orc" style="stroke:#181818;stroke-width:1.0;"/><polygon fill="none" points="1168.61,1039.41,1180.02,1021.56,1182.23,1042.63,1168.61,1039.41" style="stroke:#181818;stroke-width:1.0;"/></g><!--MD5=[30d20cacf9e2122a995009c3193c0b43]
reverse link Beast to Goblin--><g id="link_Beast_Goblin"><path codeLine="157" d="M1306.23,1034.57 C1332.63,1056.3 1360.21,1078.99 1384.34,1098.85 " fill="none" id="Beast-backto-Goblin" style="stroke:#181818;stroke-width:1.0;"/><polygon fill="none" points="1301.41,1039.67,1290.42,1021.56,1310.31,1028.86,1301.41,1039.67" style="stroke:#181818;stroke-width:1.0;"/></g><!--MD5=[9c3b017d00e50f3cda5c3311bdac40cf]
reverse link CombatHistory to Turn--><g id="link_CombatHistory_Turn"><path codeLine="159" d="M939.27,209.86 C939.37,234.83 939.48,263.41 939.58,290.77 " fill="none" id="CombatHistory-backto-Turn" style="stroke:#181818;stroke-width:1.0;"/><polygon fill="#181818" points="939.25,204.59,935.2757,213.6014,939.2643,209.59,943.2757,213.5785,939.25,204.59" style="stroke:#181818;stroke-width:1.0;"/></g><!--MD5=[1e323e952fea246c6e96a1566793af00]
link LordOfTheRings to AbstractCreatureFactory--><g id="link_LordOfTheRings_AbstractCreatureFactory"><path codeLine="161" d="M1438.62,207.17 C1516.57,258.58 1619.39,326.41 1680.89,366.97 " fill="none" id="LordOfTheRings-to-AbstractCreatureFactory" style="stroke:#181818;stroke-width:1.0;stroke-dasharray:7.0,7.0;"/><polygon fill="#181818" points="1685.25,369.84,1679.9474,361.5404,1681.0788,367.083,1675.5362,368.2144,1685.25,369.84" style="stroke:#181818;stroke-width:1.0;"/></g><!--MD5=[cc309efd175d6c6fcee3c13fcdacbdb1]
reverse link AbstractCreatureFactory to HeroesFactory--><g id="link_AbstractCreatureFactory_HeroesFactory"><path codeLine="162" d="M1734,456.1 C1734,514.02 1734,605.74 1734,653.96 " fill="none" id="AbstractCreatureFactory-backto-HeroesFactory" style="stroke:#181818;stroke-width:1.0;"/><polygon fill="none" points="1727,456.07,1734,436.07,1741,456.07,1727,456.07" style="stroke:#181818;stroke-width:1.0;"/></g><!--MD5=[4a0f81c09ed313a13fd7574089a6429a]
reverse link AbstractCreatureFactory to BeastsFactory--><g id="link_AbstractCreatureFactory_BeastsFactory"><path codeLine="163" d="M1775.19,451.41 C1795.07,474.89 1818.91,503.94 1839,531 C1869.62,572.25 1901.94,622.05 1922.03,653.87 " fill="none" id="AbstractCreatureFactory-backto-BeastsFactory" style="stroke:#181818;stroke-width:1.0;"/><polygon fill="none" points="1769.82,455.9,1762.15,436.14,1780.46,446.81,1769.82,455.9" style="stroke:#181818;stroke-width:1.0;"/></g><!--MD5=[6a106a87716a68320037c36de92c6d32]
@startuml ClassDiagram

package com.lordoftherings{
    class LordOfTheRings{
        -Army heroeArmy
        -Army beastArmy
        -Turn turn
        -CombatHistory combatHistory

        +void setup()
        +void execute()
        +void createBeastsArmy()
        +void createHeroesArmy()
    }

    class Turn{
        -Army heroeArmy
        -Army beastArmy
        -int heroeAttack
        -int beastAttack
        -int damageDealt
        -CombatHistory combatHistory

        +Turn(Army heroeArmy, Army beastArmy, CombatHistory combatHistory)
        +void combat()
        +int calculateDamageDealt()
        +void showTurnResults(int currentTurn, Creature heroe, Creature beast)
    }

    class CombatHistory{
        -int turnNumber
        -Creature winner
        -Creature loser
        -int damage

        +CombatHistory(int turnNumber, Creature winner, Creature loser, int damage)
    }

    package Creatures{
        enum CreatureType{
            HUMAN
            ELF
            HOBBIT
            ORC
            GOBLIN
        }

        abstract class Creature{
            #enum CreatureType
            -String name
            -int lifePoints
            -int shieldResistance

            +Creature(String name, int lifePoints, int shieldResistance)
            +abstract boolean isHeroe()
            +abstract int attackOpponent(Creature Creature)
            +abstract int defend(Creature Creature)
            +abstract int throwDices()
            +abstract int getCreatureType()
        }

        package heroes{
            abstract class Heroe{
                +boolean isHeroe()
                +int throwDices()
                +abstract boolean fears(Creature Creature)
                +abstract boolean hates(Creature Creature)
                +abstract int attackOpponent(Creature Creature)
                +abstract int defend(Creature Creature)
                +abstract int getCreatureType()
            }

            class Human{            
                +int getCreatureType()
                +int attackOpponent(Creature Creature)
                +int defend(Creature Creature)
                +boolean fears(Creature Creature)
                +boolean hates(Creature Creature)
            }

            class Elf{
                +int getCreatureType()
                +int attackOpponent(Creature Creature)
                +int defend(Creature Creature)
                +boolean fears(Creature Creature)
                +boolean hates(Creature Creature)
            }

            class Hobbit{
                +int getCreatureType()
                +int attackOpponent(Creature Creature)
                +int defend(Creature Creature)
                +boolean fears(Creature Creature)
                +boolean hates(Creature Creature)
            }
        }

        package beasts{
            abstract class Beast{
                +boolean isHeroe()
                +int throwDices()
                +abstract boolean extraPower()
                +abstract int attackOpponent(Creature Creature)
                +abstract int defend(Creature Creature)
                +abstract int getCreatureType()
            }

            class Orc{
                +boolean extraPower()
                +int attackOpponent(Creature Creature)
                +int defend(Creature Creature)
                +int getCreatureType()
            }

            class Goblin{
                +boolean extraPower()
                +int attackOpponent(Creature Creature)
                +int defend(Creature Creature)
                +int getCreatureType()
            }
        }
    }

    class Army{
        -ArrayList<Creature> army

        +Army()
        +ArrayList<Creature> getArmy()
        +void setArmy(Creature Creature)
    }

    abstract class AbstractCreatureFactory {
        Creature createCreature()
    }

    class HeroesFactory {
        +Heroe createCreature()
    }

    class BeastsFactory {
        +Beast createCreature()
    }
}

LordOfTheRings *- - Turn
LordOfTheRings *- - Army

Army *- - Creature

Creature <|- - Heroe
Creature <|- - Beast

Heroe <|- - Human
Heroe <|- - Elf
Heroe <|- - Hobbit

Beast <|- - Orc
Beast <|- - Goblin

CombatHistory <- - Turn

LordOfTheRings ..> AbstractCreatureFactory
AbstractCreatureFactory <|- - HeroesFactory
AbstractCreatureFactory <|- - BeastsFactory

@enduml

PlantUML version 1.2022.7(Mon Aug 22 11:01:30 CST 2022)
(GPL source distribution)
Java Runtime: Java(TM) SE Runtime Environment
JVM: Java HotSpot(TM) 64-Bit Server VM
Default Encoding: Cp1252
Language: en
Country: US
--></g></svg>