<?xml version="1.0" encoding="UTF-8" standalone="no"?><svg xmlns="http://www.w3.org/2000/svg" xmlns:xlink="http://www.w3.org/1999/xlink" contentStyleType="text/css" height="1004px" preserveAspectRatio="none" style="width:975px;height:1004px;background:#FFFFFF;" version="1.1" viewBox="0 0 975 1004" width="975px" zoomAndPan="magnify"><defs/><g><!--MD5=[502790a67a8267bf951450459cccf605]
class LordOfTheRings--><g id="elem_LordOfTheRings"><rect codeLine="2" fill="#F1F1F1" height="171.2656" id="LordOfTheRings" rx="2.5" ry="2.5" style="stroke:#181818;stroke-width:0.5;" width="183" x="536" y="7"/><ellipse cx="571.7" cy="23" fill="#ADD1B2" rx="11" ry="11" style="stroke:#181818;stroke-width:1.0;"/><path d="M574.4656,18.875 Q574.6219,18.6563 574.8094,18.5469 Q574.9969,18.4375 575.2156,18.4375 Q575.5906,18.4375 575.825,18.6953 Q576.0594,18.9531 576.0594,19.5625 L576.0594,21.0156 Q576.0594,21.625 575.825,21.8906 Q575.5906,22.1563 575.2156,22.1563 Q574.8719,22.1563 574.6688,21.9531 Q574.4656,21.7656 574.3563,21.25 Q574.3094,20.8906 574.1219,20.7031 Q573.7938,20.3281 573.1844,20.1094 Q572.575,19.8906 571.95,19.8906 Q571.1844,19.8906 570.5516,20.2188 Q569.9188,20.5469 569.4266,21.2969 Q568.9344,22.0469 568.9344,23.0781 L568.9344,24.1719 Q568.9344,25.4063 569.825,26.2266 Q570.7156,27.0469 572.3094,27.0469 Q573.2469,27.0469 573.9031,26.7969 Q574.2938,26.6406 574.7156,26.2031 Q574.9813,25.9375 575.1297,25.8594 Q575.2781,25.7813 575.4813,25.7813 Q575.8094,25.7813 576.0672,26.0391 Q576.325,26.2969 576.325,26.6406 Q576.325,26.9844 575.9813,27.3906 Q575.4813,27.9688 574.6844,28.2969 Q573.6063,28.75 572.3094,28.75 Q570.7938,28.75 569.5906,28.125 Q568.6063,27.625 567.9188,26.5547 Q567.2313,25.4844 567.2313,24.2031 L567.2313,23.0469 Q567.2313,21.7188 567.8484,20.5703 Q568.4656,19.4219 569.5594,18.8047 Q570.6531,18.1875 571.8875,18.1875 Q572.6219,18.1875 573.2703,18.3516 Q573.9188,18.5156 574.4656,18.875 Z " fill="#000000"/><text fill="#000000" font-family="sans-serif" font-size="14" lengthAdjust="spacing" textLength="105" x="590.3" y="28.7285">LordOfTheRings</text><line style="stroke:#181818;stroke-width:0.5;" x1="537" x2="718" y1="39" y2="39"/><rect fill="none" height="6" style="stroke:#C82930;stroke-width:1.0;" width="6" x="544" y="50.3047"/><text fill="#000000" font-family="sans-serif" font-size="14" lengthAdjust="spacing" textLength="105" x="556" y="57.5332">Army heroeArmy</text><rect fill="none" height="6" style="stroke:#C82930;stroke-width:1.0;" width="6" x="544" y="67.9141"/><text fill="#000000" font-family="sans-serif" font-size="14" lengthAdjust="spacing" textLength="103" x="556" y="75.1426">Army beastArmy</text><rect fill="none" height="6" style="stroke:#C82930;stroke-width:1.0;" width="6" x="544" y="85.5234"/><text fill="#000000" font-family="sans-serif" font-size="14" lengthAdjust="spacing" textLength="59" x="556" y="92.752">Turn turn</text><line style="stroke:#181818;stroke-width:0.5;" x1="537" x2="718" y1="99.8281" y2="99.8281"/><ellipse cx="547" cy="114.1328" fill="#84BE84" rx="3" ry="3" style="stroke:#038048;stroke-width:1.0;"/><text fill="#000000" font-family="sans-serif" font-size="14" lengthAdjust="spacing" textLength="75" x="556" y="118.3613">void setup()</text><ellipse cx="547" cy="131.7422" fill="#84BE84" rx="3" ry="3" style="stroke:#038048;stroke-width:1.0;"/><text fill="#000000" font-family="sans-serif" font-size="14" lengthAdjust="spacing" textLength="89" x="556" y="135.9707">void execute()</text><ellipse cx="547" cy="149.3516" fill="#84BE84" rx="3" ry="3" style="stroke:#038048;stroke-width:1.0;"/><text fill="#000000" font-family="sans-serif" font-size="14" lengthAdjust="spacing" textLength="155" x="556" y="153.5801">void createBeastsArmy()</text><ellipse cx="547" cy="166.9609" fill="#84BE84" rx="3" ry="3" style="stroke:#038048;stroke-width:1.0;"/><text fill="#000000" font-family="sans-serif" font-size="14" lengthAdjust="spacing" textLength="157" x="556" y="171.1895">void createHeroesArmy()</text></g><!--MD5=[dd91eae41778c45e12552e5329e240e8]
class Turn--><g id="elem_Turn"><rect codeLine="13" fill="#F1F1F1" height="259.3125" id="Turn" rx="2.5" ry="2.5" style="stroke:#181818;stroke-width:0.5;" width="491" x="7" y="238"/><ellipse cx="233.25" cy="254" fill="#ADD1B2" rx="11" ry="11" style="stroke:#181818;stroke-width:1.0;"/><path d="M236.0156,249.875 Q236.1719,249.6563 236.3594,249.5469 Q236.5469,249.4375 236.7656,249.4375 Q237.1406,249.4375 237.375,249.6953 Q237.6094,249.9531 237.6094,250.5625 L237.6094,252.0156 Q237.6094,252.625 237.375,252.8906 Q237.1406,253.1563 236.7656,253.1563 Q236.4219,253.1563 236.2188,252.9531 Q236.0156,252.7656 235.9063,252.25 Q235.8594,251.8906 235.6719,251.7031 Q235.3438,251.3281 234.7344,251.1094 Q234.125,250.8906 233.5,250.8906 Q232.7344,250.8906 232.1016,251.2188 Q231.4688,251.5469 230.9766,252.2969 Q230.4844,253.0469 230.4844,254.0781 L230.4844,255.1719 Q230.4844,256.4063 231.375,257.2266 Q232.2656,258.0469 233.8594,258.0469 Q234.7969,258.0469 235.4531,257.7969 Q235.8438,257.6406 236.2656,257.2031 Q236.5313,256.9375 236.6797,256.8594 Q236.8281,256.7813 237.0313,256.7813 Q237.3594,256.7813 237.6172,257.0391 Q237.875,257.2969 237.875,257.6406 Q237.875,257.9844 237.5313,258.3906 Q237.0313,258.9688 236.2344,259.2969 Q235.1563,259.75 233.8594,259.75 Q232.3438,259.75 231.1406,259.125 Q230.1563,258.625 229.4688,257.5547 Q228.7813,256.4844 228.7813,255.2031 L228.7813,254.0469 Q228.7813,252.7188 229.3984,251.5703 Q230.0156,250.4219 231.1094,249.8047 Q232.2031,249.1875 233.4375,249.1875 Q234.1719,249.1875 234.8203,249.3516 Q235.4688,249.5156 236.0156,249.875 Z " fill="#000000"/><text fill="#000000" font-family="sans-serif" font-size="14" lengthAdjust="spacing" textLength="30" x="253.75" y="259.7285">Turn</text><line style="stroke:#181818;stroke-width:0.5;" x1="8" x2="497" y1="270" y2="270"/><rect fill="none" height="6" style="stroke:#C82930;stroke-width:1.0;" width="6" x="15" y="281.3047"/><text fill="#000000" font-family="sans-serif" font-size="14" lengthAdjust="spacing" textLength="105" x="27" y="288.5332">Army heroeArmy</text><rect fill="none" height="6" style="stroke:#C82930;stroke-width:1.0;" width="6" x="15" y="298.9141"/><text fill="#000000" font-family="sans-serif" font-size="14" lengthAdjust="spacing" textLength="103" x="27" y="306.1426">Army beastArmy</text><rect fill="none" height="6" style="stroke:#C82930;stroke-width:1.0;" width="6" x="15" y="316.5234"/><text fill="#000000" font-family="sans-serif" font-size="14" lengthAdjust="spacing" textLength="95" x="27" y="323.752">int heroeAttack</text><rect fill="none" height="6" style="stroke:#C82930;stroke-width:1.0;" width="6" x="15" y="334.1328"/><text fill="#000000" font-family="sans-serif" font-size="14" lengthAdjust="spacing" textLength="93" x="27" y="341.3613">int beastAttack</text><rect fill="none" height="6" style="stroke:#C82930;stroke-width:1.0;" width="6" x="15" y="351.7422"/><text fill="#000000" font-family="sans-serif" font-size="14" lengthAdjust="spacing" textLength="103" x="27" y="358.9707">int damageDealt</text><text fill="#000000" font-family="sans-serif" font-size="14" lengthAdjust="spacing" textLength="4" x="27" y="376.5801"> </text><rect fill="none" height="6" style="stroke:#C82930;stroke-width:1.0;" width="6" x="15" y="386.9609"/><text fill="#000000" font-family="sans-serif" font-size="14" lengthAdjust="spacing" textLength="185" x="27" y="394.1895">CombatHistory combatHistory</text><line style="stroke:#181818;stroke-width:0.5;" x1="8" x2="497" y1="401.2656" y2="401.2656"/><ellipse cx="18" cy="415.5703" fill="#84BE84" rx="3" ry="3" style="stroke:#038048;stroke-width:1.0;"/><text fill="#000000" font-family="sans-serif" font-size="14" lengthAdjust="spacing" textLength="256" x="27" y="419.7988">Turn(Army heroeArmy, Army beastArmy)</text><ellipse cx="18" cy="433.1797" fill="#84BE84" rx="3" ry="3" style="stroke:#038048;stroke-width:1.0;"/><text fill="#000000" font-family="sans-serif" font-size="14" lengthAdjust="spacing" textLength="86" x="27" y="437.4082">void combat()</text><ellipse cx="18" cy="450.7891" fill="#84BE84" rx="3" ry="3" style="stroke:#038048;stroke-width:1.0;"/><text fill="#000000" font-family="sans-serif" font-size="14" lengthAdjust="spacing" textLength="171" x="27" y="455.0176">int calculateDamageDealt()</text><ellipse cx="18" cy="468.3984" fill="#84BE84" rx="3" ry="3" style="stroke:#038048;stroke-width:1.0;"/><text fill="#000000" font-family="sans-serif" font-size="14" lengthAdjust="spacing" textLength="225" x="27" y="472.627">int throwDices(Character character)</text><ellipse cx="18" cy="486.0078" fill="#84BE84" rx="3" ry="3" style="stroke:#038048;stroke-width:1.0;"/><text fill="#000000" font-family="sans-serif" font-size="14" lengthAdjust="spacing" textLength="465" x="27" y="490.2363">void showTurnResults(int currentTurn, Character heroe, Character beast)</text></g><!--MD5=[1283a7b4657281046841182c8e1f9c08]
class CombatHistory--><g id="elem_CombatHistory"><rect codeLine="28" fill="#F1F1F1" height="118.4375" id="CombatHistory" rx="2.5" ry="2.5" style="stroke:#181818;stroke-width:0.5;" width="443" x="31" y="33.5"/><ellipse cx="202.25" cy="49.5" fill="#ADD1B2" rx="11" ry="11" style="stroke:#181818;stroke-width:1.0;"/><path d="M205.0156,45.375 Q205.1719,45.1563 205.3594,45.0469 Q205.5469,44.9375 205.7656,44.9375 Q206.1406,44.9375 206.375,45.1953 Q206.6094,45.4531 206.6094,46.0625 L206.6094,47.5156 Q206.6094,48.125 206.375,48.3906 Q206.1406,48.6563 205.7656,48.6563 Q205.4219,48.6563 205.2188,48.4531 Q205.0156,48.2656 204.9063,47.75 Q204.8594,47.3906 204.6719,47.2031 Q204.3438,46.8281 203.7344,46.6094 Q203.125,46.3906 202.5,46.3906 Q201.7344,46.3906 201.1016,46.7188 Q200.4688,47.0469 199.9766,47.7969 Q199.4844,48.5469 199.4844,49.5781 L199.4844,50.6719 Q199.4844,51.9063 200.375,52.7266 Q201.2656,53.5469 202.8594,53.5469 Q203.7969,53.5469 204.4531,53.2969 Q204.8438,53.1406 205.2656,52.7031 Q205.5313,52.4375 205.6797,52.3594 Q205.8281,52.2813 206.0313,52.2813 Q206.3594,52.2813 206.6172,52.5391 Q206.875,52.7969 206.875,53.1406 Q206.875,53.4844 206.5313,53.8906 Q206.0313,54.4688 205.2344,54.7969 Q204.1563,55.25 202.8594,55.25 Q201.3438,55.25 200.1406,54.625 Q199.1563,54.125 198.4688,53.0547 Q197.7813,51.9844 197.7813,50.7031 L197.7813,49.5469 Q197.7813,48.2188 198.3984,47.0703 Q199.0156,45.9219 200.1094,45.3047 Q201.2031,44.6875 202.4375,44.6875 Q203.1719,44.6875 203.8203,44.8516 Q204.4688,45.0156 205.0156,45.375 Z " fill="#000000"/><text fill="#000000" font-family="sans-serif" font-size="14" lengthAdjust="spacing" textLength="92" x="222.75" y="55.2285">CombatHistory</text><line style="stroke:#181818;stroke-width:0.5;" x1="32" x2="473" y1="65.5" y2="65.5"/><rect fill="none" height="6" style="stroke:#C82930;stroke-width:1.0;" width="6" x="39" y="76.8047"/><text fill="#000000" font-family="sans-serif" font-size="14" lengthAdjust="spacing" textLength="93" x="51" y="84.0332">int turnNumber</text><rect fill="none" height="6" style="stroke:#C82930;stroke-width:1.0;" width="6" x="39" y="94.4141"/><text fill="#000000" font-family="sans-serif" font-size="14" lengthAdjust="spacing" textLength="108" x="51" y="101.6426">Character winner</text><rect fill="none" height="6" style="stroke:#C82930;stroke-width:1.0;" width="6" x="39" y="112.0234"/><text fill="#000000" font-family="sans-serif" font-size="14" lengthAdjust="spacing" textLength="98" x="51" y="119.252">Character loser</text><line style="stroke:#181818;stroke-width:0.5;" x1="32" x2="473" y1="126.3281" y2="126.3281"/><ellipse cx="42" cy="140.6328" fill="#84BE84" rx="3" ry="3" style="stroke:#038048;stroke-width:1.0;"/><text fill="#000000" font-family="sans-serif" font-size="14" lengthAdjust="spacing" textLength="417" x="51" y="144.8613">CombatHistory(int turnNumber, Character winner, Character loser)</text></g><!--MD5=[b96ce472b013257463663b1526cad2a5]
class Army--><g id="elem_Army"><rect codeLine="36" fill="#F1F1F1" height="118.4375" id="Army" rx="2.5" ry="2.5" style="stroke:#181818;stroke-width:0.5;" width="244" x="533.5" y="308.5"/><ellipse cx="635.25" cy="324.5" fill="#ADD1B2" rx="11" ry="11" style="stroke:#181818;stroke-width:1.0;"/><path d="M638.0156,320.375 Q638.1719,320.1563 638.3594,320.0469 Q638.5469,319.9375 638.7656,319.9375 Q639.1406,319.9375 639.375,320.1953 Q639.6094,320.4531 639.6094,321.0625 L639.6094,322.5156 Q639.6094,323.125 639.375,323.3906 Q639.1406,323.6563 638.7656,323.6563 Q638.4219,323.6563 638.2188,323.4531 Q638.0156,323.2656 637.9063,322.75 Q637.8594,322.3906 637.6719,322.2031 Q637.3438,321.8281 636.7344,321.6094 Q636.125,321.3906 635.5,321.3906 Q634.7344,321.3906 634.1016,321.7188 Q633.4688,322.0469 632.9766,322.7969 Q632.4844,323.5469 632.4844,324.5781 L632.4844,325.6719 Q632.4844,326.9063 633.375,327.7266 Q634.2656,328.5469 635.8594,328.5469 Q636.7969,328.5469 637.4531,328.2969 Q637.8438,328.1406 638.2656,327.7031 Q638.5313,327.4375 638.6797,327.3594 Q638.8281,327.2813 639.0313,327.2813 Q639.3594,327.2813 639.6172,327.5391 Q639.875,327.7969 639.875,328.1406 Q639.875,328.4844 639.5313,328.8906 Q639.0313,329.4688 638.2344,329.7969 Q637.1563,330.25 635.8594,330.25 Q634.3438,330.25 633.1406,329.625 Q632.1563,329.125 631.4688,328.0547 Q630.7813,326.9844 630.7813,325.7031 L630.7813,324.5469 Q630.7813,323.2188 631.3984,322.0703 Q632.0156,320.9219 633.1094,320.3047 Q634.2031,319.6875 635.4375,319.6875 Q636.1719,319.6875 636.8203,319.8516 Q637.4688,320.0156 638.0156,320.375 Z " fill="#000000"/><text fill="#000000" font-family="sans-serif" font-size="14" lengthAdjust="spacing" textLength="32" x="655.75" y="330.2285">Army</text><line style="stroke:#181818;stroke-width:0.5;" x1="534.5" x2="776.5" y1="340.5" y2="340.5"/><rect fill="none" height="6" style="stroke:#C82930;stroke-width:1.0;" width="6" x="541.5" y="351.8047"/><text fill="#000000" font-family="sans-serif" font-size="14" lengthAdjust="spacing" textLength="170" x="553.5" y="359.0332">ArrayList&lt;Character&gt; army</text><line style="stroke:#181818;stroke-width:0.5;" x1="534.5" x2="776.5" y1="366.1094" y2="366.1094"/><ellipse cx="544.5" cy="380.4141" fill="#84BE84" rx="3" ry="3" style="stroke:#038048;stroke-width:1.0;"/><text fill="#000000" font-family="sans-serif" font-size="14" lengthAdjust="spacing" textLength="42" x="553.5" y="384.6426">Army()</text><ellipse cx="544.5" cy="398.0234" fill="#84BE84" rx="3" ry="3" style="stroke:#038048;stroke-width:1.0;"/><text fill="#000000" font-family="sans-serif" font-size="14" lengthAdjust="spacing" textLength="201" x="553.5" y="402.252">ArrayList&lt;Character&gt; getArmy()</text><ellipse cx="544.5" cy="415.6328" fill="#84BE84" rx="3" ry="3" style="stroke:#038048;stroke-width:1.0;"/><text fill="#000000" font-family="sans-serif" font-size="14" lengthAdjust="spacing" textLength="218" x="553.5" y="419.8613">void setArmy(Character character)</text></g><!--MD5=[3eff9d4279c887ef9286477750bdaaff]
class Character--><g id="elem_Character"><rect codeLine="44" fill="#F1F1F1" height="136.0469" id="Character" rx="2.5" ry="2.5" style="stroke:#181818;stroke-width:0.5;" width="393" x="459" y="557"/><ellipse cx="619.75" cy="573" fill="#A9DCDF" rx="11" ry="11" style="stroke:#181818;stroke-width:1.0;"/><path d="M621.9375,574.7656 L617.7969,574.7656 L617.375,575.7969 L617.7969,575.7969 Q618.4063,575.7969 618.6719,576.0313 Q618.9375,576.2656 618.9375,576.6563 Q618.9375,577.0313 618.6719,577.2656 Q618.4063,577.5 617.7969,577.5 L615.5,577.5 Q614.8906,577.5 614.6328,577.2656 Q614.375,577.0313 614.375,576.6406 Q614.375,576.2656 614.6484,576.0234 Q614.9219,575.7813 615.5469,575.7969 L618.2188,569.1406 L617.1094,569.1406 Q616.5,569.1406 616.2344,568.9063 Q615.9688,568.6719 615.9688,568.2813 Q615.9688,567.9063 616.2344,567.6719 Q616.5,567.4375 617.1094,567.4375 L620.7813,567.4375 L624.1719,575.7969 Q624.7656,575.7969 624.9531,575.9375 Q625.3438,576.2031 625.3438,576.6563 Q625.3438,577.0313 625.0859,577.2656 Q624.8281,577.5 624.2188,577.5 L621.9219,577.5 Q621.3125,577.5 621.0469,577.2656 Q620.7813,577.0313 620.7813,576.6406 Q620.7813,576.2656 621.0469,576.0313 Q621.3125,575.7969 621.9219,575.7969 L622.3438,575.7969 L621.9375,574.7656 Z M621.2188,573.0625 L619.8594,569.6875 L618.4844,573.0625 L621.2188,573.0625 Z " fill="#000000"/><text fill="#000000" font-family="sans-serif" font-size="14" font-style="italic" lengthAdjust="spacing" textLength="63" x="640.25" y="578.7285">Character</text><line style="stroke:#181818;stroke-width:0.5;" x1="460" x2="851" y1="589" y2="589"/><rect fill="none" height="6" style="stroke:#C82930;stroke-width:1.0;" width="6" x="467" y="600.3047"/><text fill="#000000" font-family="sans-serif" font-size="14" lengthAdjust="spacing" textLength="76" x="479" y="607.5332">String name</text><rect fill="none" height="6" style="stroke:#C82930;stroke-width:1.0;" width="6" x="467" y="617.9141"/><text fill="#000000" font-family="sans-serif" font-size="14" lengthAdjust="spacing" textLength="76" x="479" y="625.1426">int lifePoints</text><rect fill="none" height="6" style="stroke:#C82930;stroke-width:1.0;" width="6" x="467" y="635.5234"/><text fill="#000000" font-family="sans-serif" font-size="14" lengthAdjust="spacing" textLength="126" x="479" y="642.752">int shieldResistance</text><line style="stroke:#181818;stroke-width:0.5;" x1="460" x2="851" y1="649.8281" y2="649.8281"/><ellipse cx="470" cy="664.1328" fill="#84BE84" rx="3" ry="3" style="stroke:#038048;stroke-width:1.0;"/><text fill="#000000" font-family="sans-serif" font-size="14" lengthAdjust="spacing" textLength="367" x="479" y="668.3613">Character(String name, int lifePoints, int shieldResistance)</text><ellipse cx="470" cy="681.7422" fill="#84BE84" rx="3" ry="3" style="stroke:#038048;stroke-width:1.0;"/><text fill="#000000" font-family="sans-serif" font-size="14" lengthAdjust="spacing" textLength="168" x="479" y="685.9707">abstract boolean isHeroe()</text></g><!--MD5=[31554468d514a5c554004da71d574877]
class Heroe--><g id="elem_Heroe"><rect codeLine="53" fill="#F1F1F1" height="100.8281" id="Heroe" rx="2.5" ry="2.5" style="stroke:#181818;stroke-width:0.5;" width="172" x="464.5" y="753"/><ellipse cx="526.75" cy="769" fill="#A9DCDF" rx="11" ry="11" style="stroke:#181818;stroke-width:1.0;"/><path d="M528.9375,770.7656 L524.7969,770.7656 L524.375,771.7969 L524.7969,771.7969 Q525.4063,771.7969 525.6719,772.0313 Q525.9375,772.2656 525.9375,772.6563 Q525.9375,773.0313 525.6719,773.2656 Q525.4063,773.5 524.7969,773.5 L522.5,773.5 Q521.8906,773.5 521.6328,773.2656 Q521.375,773.0313 521.375,772.6406 Q521.375,772.2656 521.6484,772.0234 Q521.9219,771.7813 522.5469,771.7969 L525.2188,765.1406 L524.1094,765.1406 Q523.5,765.1406 523.2344,764.9063 Q522.9688,764.6719 522.9688,764.2813 Q522.9688,763.9063 523.2344,763.6719 Q523.5,763.4375 524.1094,763.4375 L527.7813,763.4375 L531.1719,771.7969 Q531.7656,771.7969 531.9531,771.9375 Q532.3438,772.2031 532.3438,772.6563 Q532.3438,773.0313 532.0859,773.2656 Q531.8281,773.5 531.2188,773.5 L528.9219,773.5 Q528.3125,773.5 528.0469,773.2656 Q527.7813,773.0313 527.7813,772.6406 Q527.7813,772.2656 528.0469,772.0313 Q528.3125,771.7969 528.9219,771.7969 L529.3438,771.7969 L528.9375,770.7656 Z M528.2188,769.0625 L526.8594,765.6875 L525.4844,769.0625 L528.2188,769.0625 Z " fill="#000000"/><text fill="#000000" font-family="sans-serif" font-size="14" font-style="italic" lengthAdjust="spacing" textLength="39" x="547.25" y="774.7285">Heroe</text><line style="stroke:#181818;stroke-width:0.5;" x1="465.5" x2="635.5" y1="785" y2="785"/><polygon fill="none" points="475.5,794.3047,479.5,798.3047,475.5,802.3047,471.5,798.3047" style="stroke:#B38D22;stroke-width:1.0;"/><text fill="#000000" font-family="sans-serif" font-size="14" lengthAdjust="spacing" textLength="131" x="484.5" y="803.5332">enum characterType</text><line style="stroke:#181818;stroke-width:0.5;" x1="465.5" x2="635.5" y1="810.6094" y2="810.6094"/><ellipse cx="475.5" cy="824.9141" fill="#84BE84" rx="3" ry="3" style="stroke:#038048;stroke-width:1.0;"/><text fill="#000000" font-family="sans-serif" font-size="14" lengthAdjust="spacing" textLength="113" x="484.5" y="829.1426">boolean isHeroe()</text><ellipse cx="475.5" cy="842.5234" fill="#84BE84" rx="3" ry="3" style="stroke:#038048;stroke-width:1.0;"/><text fill="#000000" font-family="sans-serif" font-size="14" lengthAdjust="spacing" textLength="146" x="484.5" y="846.752">abstract boolean isElf()</text></g><!--MD5=[98133313ff9464cd76d799a1ad322637]
class characterType--><g id="elem_characterType"><rect codeLine="59" fill="#F1F1F1" height="118.4375" id="characterType" rx="2.5" ry="2.5" style="stroke:#181818;stroke-width:0.5;" width="124" x="754.5" y="33.5"/><ellipse cx="769.5" cy="49.5" fill="#EB937F" rx="11" ry="11" style="stroke:#181818;stroke-width:1.0;"/><path d="M768.3594,50.2969 L768.3594,52.7969 L772.6875,52.7969 L772.6875,51.875 Q772.6875,51.2656 772.9297,51 Q773.1719,50.7344 773.5469,50.7344 Q773.9219,50.7344 774.1563,51 Q774.3906,51.2656 774.3906,51.875 L774.3906,54.5 L766.3906,54.5 Q765.7656,54.5 765.5078,54.2656 Q765.25,54.0313 765.25,53.6406 Q765.25,53.2656 765.5156,53.0313 Q765.7813,52.7969 766.3906,52.7969 L766.6563,52.7969 L766.6563,46.1406 L766.3906,46.1406 Q765.7656,46.1406 765.5078,45.9063 Q765.25,45.6719 765.25,45.2813 Q765.25,44.9063 765.5078,44.6719 Q765.7656,44.4375 766.3906,44.4375 L774.0156,44.4375 L774.0156,47.0313 Q774.0156,47.6406 773.7891,47.8984 Q773.5625,48.1563 773.1719,48.1563 Q772.7969,48.1563 772.5625,47.8984 Q772.3281,47.6406 772.3281,47.0313 L772.3281,46.1406 L768.3594,46.1406 L768.3594,48.5938 L769.8438,48.5938 Q769.8438,47.9375 769.9688,47.75 Q770.2344,47.3438 770.7031,47.3438 Q771.0781,47.3438 771.3125,47.6016 Q771.5469,47.8594 771.5469,48.4688 L771.5469,50.4375 Q771.5469,50.9844 771.4219,51.1719 Q771.1563,51.5625 770.7031,51.5625 Q770.2344,51.5625 769.9688,51.1563 Q769.8438,50.9688 769.8438,50.2969 L768.3594,50.2969 Z " fill="#000000"/><text fill="#000000" font-family="sans-serif" font-size="14" lengthAdjust="spacing" textLength="92" x="783.5" y="55.2285">characterType</text><line style="stroke:#181818;stroke-width:0.5;" x1="755.5" x2="877.5" y1="65.5" y2="65.5"/><text fill="#000000" font-family="sans-serif" font-size="14" lengthAdjust="spacing" textLength="26" x="760.5" y="84.0332">ELF</text><text fill="#000000" font-family="sans-serif" font-size="14" lengthAdjust="spacing" textLength="50" x="760.5" y="101.6426">HOBBIT</text><text fill="#000000" font-family="sans-serif" font-size="14" lengthAdjust="spacing" textLength="31" x="760.5" y="119.252">ORC</text><text fill="#000000" font-family="sans-serif" font-size="14" lengthAdjust="spacing" textLength="51" x="760.5" y="136.8613">GOBLIN</text><line style="stroke:#181818;stroke-width:0.5;" x1="755.5" x2="877.5" y1="143.9375" y2="143.9375"/></g><!--MD5=[1add97151753c0fb34b998a49b664f10]
class Elf--><g id="elem_Elf"><rect codeLine="66" fill="#F1F1F1" height="83.2188" id="Elf" rx="2.5" ry="2.5" style="stroke:#181818;stroke-width:0.5;" width="117" x="354" y="914"/><ellipse cx="400.25" cy="930" fill="#ADD1B2" rx="11" ry="11" style="stroke:#181818;stroke-width:1.0;"/><path d="M403.0156,925.875 Q403.1719,925.6563 403.3594,925.5469 Q403.5469,925.4375 403.7656,925.4375 Q404.1406,925.4375 404.375,925.6953 Q404.6094,925.9531 404.6094,926.5625 L404.6094,928.0156 Q404.6094,928.625 404.375,928.8906 Q404.1406,929.1563 403.7656,929.1563 Q403.4219,929.1563 403.2188,928.9531 Q403.0156,928.7656 402.9063,928.25 Q402.8594,927.8906 402.6719,927.7031 Q402.3438,927.3281 401.7344,927.1094 Q401.125,926.8906 400.5,926.8906 Q399.7344,926.8906 399.1016,927.2188 Q398.4688,927.5469 397.9766,928.2969 Q397.4844,929.0469 397.4844,930.0781 L397.4844,931.1719 Q397.4844,932.4063 398.375,933.2266 Q399.2656,934.0469 400.8594,934.0469 Q401.7969,934.0469 402.4531,933.7969 Q402.8438,933.6406 403.2656,933.2031 Q403.5313,932.9375 403.6797,932.8594 Q403.8281,932.7813 404.0313,932.7813 Q404.3594,932.7813 404.6172,933.0391 Q404.875,933.2969 404.875,933.6406 Q404.875,933.9844 404.5313,934.3906 Q404.0313,934.9688 403.2344,935.2969 Q402.1563,935.75 400.8594,935.75 Q399.3438,935.75 398.1406,935.125 Q397.1563,934.625 396.4688,933.5547 Q395.7813,932.4844 395.7813,931.2031 L395.7813,930.0469 Q395.7813,928.7188 396.3984,927.5703 Q397.0156,926.4219 398.1094,925.8047 Q399.2031,925.1875 400.4375,925.1875 Q401.1719,925.1875 401.8203,925.3516 Q402.4688,925.5156 403.0156,925.875 Z " fill="#000000"/><text fill="#000000" font-family="sans-serif" font-size="14" lengthAdjust="spacing" textLength="16" x="420.75" y="935.7285">Elf</text><line style="stroke:#181818;stroke-width:0.5;" x1="355" x2="470" y1="946" y2="946"/><line style="stroke:#181818;stroke-width:0.5;" x1="355" x2="470" y1="954" y2="954"/><ellipse cx="365" cy="968.3047" fill="#84BE84" rx="3" ry="3" style="stroke:#038048;stroke-width:1.0;"/><text fill="#000000" font-family="sans-serif" font-size="14" lengthAdjust="spacing" textLength="64" x="374" y="972.5332">int hates()</text><ellipse cx="365" cy="985.9141" fill="#84BE84" rx="3" ry="3" style="stroke:#038048;stroke-width:1.0;"/><text fill="#000000" font-family="sans-serif" font-size="14" lengthAdjust="spacing" textLength="91" x="374" y="990.1426">boolean isElf()</text></g><!--MD5=[3b6ab42e97f9cd82844818737ead6040]
class Hobbit--><g id="elem_Hobbit"><rect codeLine="71" fill="#F1F1F1" height="83.2188" id="Hobbit" rx="2.5" ry="2.5" style="stroke:#181818;stroke-width:0.5;" width="117" x="506" y="914"/><ellipse cx="541.25" cy="930" fill="#ADD1B2" rx="11" ry="11" style="stroke:#181818;stroke-width:1.0;"/><path d="M544.0156,925.875 Q544.1719,925.6563 544.3594,925.5469 Q544.5469,925.4375 544.7656,925.4375 Q545.1406,925.4375 545.375,925.6953 Q545.6094,925.9531 545.6094,926.5625 L545.6094,928.0156 Q545.6094,928.625 545.375,928.8906 Q545.1406,929.1563 544.7656,929.1563 Q544.4219,929.1563 544.2188,928.9531 Q544.0156,928.7656 543.9063,928.25 Q543.8594,927.8906 543.6719,927.7031 Q543.3438,927.3281 542.7344,927.1094 Q542.125,926.8906 541.5,926.8906 Q540.7344,926.8906 540.1016,927.2188 Q539.4688,927.5469 538.9766,928.2969 Q538.4844,929.0469 538.4844,930.0781 L538.4844,931.1719 Q538.4844,932.4063 539.375,933.2266 Q540.2656,934.0469 541.8594,934.0469 Q542.7969,934.0469 543.4531,933.7969 Q543.8438,933.6406 544.2656,933.2031 Q544.5313,932.9375 544.6797,932.8594 Q544.8281,932.7813 545.0313,932.7813 Q545.3594,932.7813 545.6172,933.0391 Q545.875,933.2969 545.875,933.6406 Q545.875,933.9844 545.5313,934.3906 Q545.0313,934.9688 544.2344,935.2969 Q543.1563,935.75 541.8594,935.75 Q540.3438,935.75 539.1406,935.125 Q538.1563,934.625 537.4688,933.5547 Q536.7813,932.4844 536.7813,931.2031 L536.7813,930.0469 Q536.7813,928.7188 537.3984,927.5703 Q538.0156,926.4219 539.1094,925.8047 Q540.2031,925.1875 541.4375,925.1875 Q542.1719,925.1875 542.8203,925.3516 Q543.4688,925.5156 544.0156,925.875 Z " fill="#000000"/><text fill="#000000" font-family="sans-serif" font-size="14" lengthAdjust="spacing" textLength="40" x="559.75" y="935.7285">Hobbit</text><line style="stroke:#181818;stroke-width:0.5;" x1="507" x2="622" y1="946" y2="946"/><line style="stroke:#181818;stroke-width:0.5;" x1="507" x2="622" y1="954" y2="954"/><ellipse cx="517" cy="968.3047" fill="#84BE84" rx="3" ry="3" style="stroke:#038048;stroke-width:1.0;"/><text fill="#000000" font-family="sans-serif" font-size="14" lengthAdjust="spacing" textLength="61" x="526" y="972.5332">int fears()</text><ellipse cx="517" cy="985.9141" fill="#84BE84" rx="3" ry="3" style="stroke:#038048;stroke-width:1.0;"/><text fill="#000000" font-family="sans-serif" font-size="14" lengthAdjust="spacing" textLength="91" x="526" y="990.1426">boolean isElf()</text></g><!--MD5=[74f5148b25996fb58aa9453688e9dbab]
class Beast--><g id="elem_Beast"><rect codeLine="76" fill="#F1F1F1" height="100.8281" id="Beast" rx="2.5" ry="2.5" style="stroke:#181818;stroke-width:0.5;" width="179" x="672" y="753"/><ellipse cx="739.25" cy="769" fill="#A9DCDF" rx="11" ry="11" style="stroke:#181818;stroke-width:1.0;"/><path d="M741.4375,770.7656 L737.2969,770.7656 L736.875,771.7969 L737.2969,771.7969 Q737.9063,771.7969 738.1719,772.0313 Q738.4375,772.2656 738.4375,772.6563 Q738.4375,773.0313 738.1719,773.2656 Q737.9063,773.5 737.2969,773.5 L735,773.5 Q734.3906,773.5 734.1328,773.2656 Q733.875,773.0313 733.875,772.6406 Q733.875,772.2656 734.1484,772.0234 Q734.4219,771.7813 735.0469,771.7969 L737.7188,765.1406 L736.6094,765.1406 Q736,765.1406 735.7344,764.9063 Q735.4688,764.6719 735.4688,764.2813 Q735.4688,763.9063 735.7344,763.6719 Q736,763.4375 736.6094,763.4375 L740.2813,763.4375 L743.6719,771.7969 Q744.2656,771.7969 744.4531,771.9375 Q744.8438,772.2031 744.8438,772.6563 Q744.8438,773.0313 744.5859,773.2656 Q744.3281,773.5 743.7188,773.5 L741.4219,773.5 Q740.8125,773.5 740.5469,773.2656 Q740.2813,773.0313 740.2813,772.6406 Q740.2813,772.2656 740.5469,772.0313 Q740.8125,771.7969 741.4219,771.7969 L741.8438,771.7969 L741.4375,770.7656 Z M740.7188,769.0625 L739.3594,765.6875 L737.9844,769.0625 L740.7188,769.0625 Z " fill="#000000"/><text fill="#000000" font-family="sans-serif" font-size="14" font-style="italic" lengthAdjust="spacing" textLength="36" x="759.75" y="774.7285">Beast</text><line style="stroke:#181818;stroke-width:0.5;" x1="673" x2="850" y1="785" y2="785"/><polygon fill="none" points="683,794.3047,687,798.3047,683,802.3047,679,798.3047" style="stroke:#B38D22;stroke-width:1.0;"/><text fill="#000000" font-family="sans-serif" font-size="14" lengthAdjust="spacing" textLength="131" x="692" y="803.5332">enum characterType</text><line style="stroke:#181818;stroke-width:0.5;" x1="673" x2="850" y1="810.6094" y2="810.6094"/><ellipse cx="683" cy="824.9141" fill="#84BE84" rx="3" ry="3" style="stroke:#038048;stroke-width:1.0;"/><text fill="#000000" font-family="sans-serif" font-size="14" lengthAdjust="spacing" textLength="113" x="692" y="829.1426">boolean isHeroe()</text><ellipse cx="683" cy="842.5234" fill="#84BE84" rx="3" ry="3" style="stroke:#038048;stroke-width:1.0;"/><text fill="#000000" font-family="sans-serif" font-size="14" lengthAdjust="spacing" textLength="153" x="692" y="846.752">abstract boolean isOrc()</text></g><!--MD5=[93a60ddb14422ad2d71d3d461138a146]
class Orc--><g id="elem_Orc"><rect codeLine="82" fill="#F1F1F1" height="65.6094" id="Orc" rx="2.5" ry="2.5" style="stroke:#181818;stroke-width:0.5;" width="124" x="685.5" y="922.5"/><ellipse cx="731.75" cy="938.5" fill="#ADD1B2" rx="11" ry="11" style="stroke:#181818;stroke-width:1.0;"/><path d="M734.5156,934.375 Q734.6719,934.1563 734.8594,934.0469 Q735.0469,933.9375 735.2656,933.9375 Q735.6406,933.9375 735.875,934.1953 Q736.1094,934.4531 736.1094,935.0625 L736.1094,936.5156 Q736.1094,937.125 735.875,937.3906 Q735.6406,937.6563 735.2656,937.6563 Q734.9219,937.6563 734.7188,937.4531 Q734.5156,937.2656 734.4063,936.75 Q734.3594,936.3906 734.1719,936.2031 Q733.8438,935.8281 733.2344,935.6094 Q732.625,935.3906 732,935.3906 Q731.2344,935.3906 730.6016,935.7188 Q729.9688,936.0469 729.4766,936.7969 Q728.9844,937.5469 728.9844,938.5781 L728.9844,939.6719 Q728.9844,940.9063 729.875,941.7266 Q730.7656,942.5469 732.3594,942.5469 Q733.2969,942.5469 733.9531,942.2969 Q734.3438,942.1406 734.7656,941.7031 Q735.0313,941.4375 735.1797,941.3594 Q735.3281,941.2813 735.5313,941.2813 Q735.8594,941.2813 736.1172,941.5391 Q736.375,941.7969 736.375,942.1406 Q736.375,942.4844 736.0313,942.8906 Q735.5313,943.4688 734.7344,943.7969 Q733.6563,944.25 732.3594,944.25 Q730.8438,944.25 729.6406,943.625 Q728.6563,943.125 727.9688,942.0547 Q727.2813,940.9844 727.2813,939.7031 L727.2813,938.5469 Q727.2813,937.2188 727.8984,936.0703 Q728.5156,934.9219 729.6094,934.3047 Q730.7031,933.6875 731.9375,933.6875 Q732.6719,933.6875 733.3203,933.8516 Q733.9688,934.0156 734.5156,934.375 Z " fill="#000000"/><text fill="#000000" font-family="sans-serif" font-size="14" lengthAdjust="spacing" textLength="23" x="752.25" y="944.2285">Orc</text><line style="stroke:#181818;stroke-width:0.5;" x1="686.5" x2="808.5" y1="954.5" y2="954.5"/><line style="stroke:#181818;stroke-width:0.5;" x1="686.5" x2="808.5" y1="962.5" y2="962.5"/><ellipse cx="696.5" cy="976.8047" fill="#84BE84" rx="3" ry="3" style="stroke:#038048;stroke-width:1.0;"/><text fill="#000000" font-family="sans-serif" font-size="14" lengthAdjust="spacing" textLength="98" x="705.5" y="981.0332">boolean isOrc()</text></g><!--MD5=[4835e745e662bfe0926c2656c60a5d05]
class Goblin--><g id="elem_Goblin"><rect codeLine="86" fill="#F1F1F1" height="65.6094" id="Goblin" rx="2.5" ry="2.5" style="stroke:#181818;stroke-width:0.5;" width="124" x="844.5" y="922.5"/><ellipse cx="882.45" cy="938.5" fill="#ADD1B2" rx="11" ry="11" style="stroke:#181818;stroke-width:1.0;"/><path d="M885.2156,934.375 Q885.3719,934.1563 885.5594,934.0469 Q885.7469,933.9375 885.9656,933.9375 Q886.3406,933.9375 886.575,934.1953 Q886.8094,934.4531 886.8094,935.0625 L886.8094,936.5156 Q886.8094,937.125 886.575,937.3906 Q886.3406,937.6563 885.9656,937.6563 Q885.6219,937.6563 885.4188,937.4531 Q885.2156,937.2656 885.1063,936.75 Q885.0594,936.3906 884.8719,936.2031 Q884.5438,935.8281 883.9344,935.6094 Q883.325,935.3906 882.7,935.3906 Q881.9344,935.3906 881.3016,935.7188 Q880.6688,936.0469 880.1766,936.7969 Q879.6844,937.5469 879.6844,938.5781 L879.6844,939.6719 Q879.6844,940.9063 880.575,941.7266 Q881.4656,942.5469 883.0594,942.5469 Q883.9969,942.5469 884.6531,942.2969 Q885.0438,942.1406 885.4656,941.7031 Q885.7313,941.4375 885.8797,941.3594 Q886.0281,941.2813 886.2313,941.2813 Q886.5594,941.2813 886.8172,941.5391 Q887.075,941.7969 887.075,942.1406 Q887.075,942.4844 886.7313,942.8906 Q886.2313,943.4688 885.4344,943.7969 Q884.3563,944.25 883.0594,944.25 Q881.5438,944.25 880.3406,943.625 Q879.3563,943.125 878.6688,942.0547 Q877.9813,940.9844 877.9813,939.7031 L877.9813,938.5469 Q877.9813,937.2188 878.5984,936.0703 Q879.2156,934.9219 880.3094,934.3047 Q881.4031,933.6875 882.6375,933.6875 Q883.3719,933.6875 884.0203,933.8516 Q884.6688,934.0156 885.2156,934.375 Z " fill="#000000"/><text fill="#000000" font-family="sans-serif" font-size="14" lengthAdjust="spacing" textLength="41" x="901.55" y="944.2285">Goblin</text><line style="stroke:#181818;stroke-width:0.5;" x1="845.5" x2="967.5" y1="954.5" y2="954.5"/><line style="stroke:#181818;stroke-width:0.5;" x1="845.5" x2="967.5" y1="962.5" y2="962.5"/><ellipse cx="855.5" cy="976.8047" fill="#84BE84" rx="3" ry="3" style="stroke:#038048;stroke-width:1.0;"/><text fill="#000000" font-family="sans-serif" font-size="14" lengthAdjust="spacing" textLength="98" x="864.5" y="981.0332">boolean isOrc()</text></g><!--MD5=[9b2d2c8ec68daa05ecabf5edaa4d6a9c]
reverse link LordOfTheRings to Turn--><g id="link_LordOfTheRings_Turn"><path codeLine="90" d="M524.99,168.13 C495.26,189.77 461.92,214.04 429.04,237.98 " fill="none" id="LordOfTheRings-backto-Turn" style="stroke:#181818;stroke-width:1.0;"/><polygon fill="#181818" points="535.76,160.28,528.555,160.577,526.058,167.342,533.263,167.045,535.76,160.28" style="stroke:#181818;stroke-width:1.0;"/></g><!--MD5=[6cba6bdeebff1f5b0e96701b33e76a6f]
reverse link LordOfTheRings to Army--><g id="link_LordOfTheRings_Army"><path codeLine="91" d="M637.51,191.11 C641.54,230.34 646.04,274.25 649.53,308.32 " fill="none" id="LordOfTheRings-backto-Army" style="stroke:#181818;stroke-width:1.0;"/><polygon fill="#181818" points="636.17,178.01,632.8043,184.3875,637.3967,189.9471,640.7624,183.5697,636.17,178.01" style="stroke:#181818;stroke-width:1.0;"/></g><!--MD5=[f8f102e063e6d0bbf4d605f81b3aeb36]
reverse link Army to Character--><g id="link_Army_Character"><path codeLine="93" d="M655.5,439.92 C655.5,476.56 655.5,520.93 655.5,556.93 " fill="none" id="Army-backto-Character" style="stroke:#181818;stroke-width:1.0;"/><polygon fill="#181818" points="655.5,426.8,651.5,432.8,655.5,438.8,659.5,432.8,655.5,426.8" style="stroke:#181818;stroke-width:1.0;"/></g><!--MD5=[b2c42a4d2f0fe767186f8747813468a9]
reverse link Character to Heroe--><g id="link_Character_Heroe"><path codeLine="95" d="M605.14,710.65 C596.56,725.07 587.91,739.62 580.1,752.75 " fill="none" id="Character-backto-Heroe" style="stroke:#181818;stroke-width:1.0;"/><polygon fill="none" points="599.26,706.84,615.5,693.23,611.29,714,599.26,706.84" style="stroke:#181818;stroke-width:1.0;"/></g><!--MD5=[cd5b2b92d0c946bd1d4a1ebbae3e0315]
reverse link Character to Beast--><g id="link_Character_Beast"><path codeLine="96" d="M706.34,710.65 C715,725.07 723.74,739.62 731.62,752.75 " fill="none" id="Character-backto-Beast" style="stroke:#181818;stroke-width:1.0;"/><polygon fill="none" points="700.17,713.98,695.88,693.23,712.17,706.77,700.17,713.98" style="stroke:#181818;stroke-width:1.0;"/></g><!--MD5=[a6e273bf561dffabf099a11570a78ebc]
reverse link Heroe to Elf--><g id="link_Heroe_Elf"><path codeLine="98" d="M491.27,868.88 C477.34,884.02 462.87,899.75 450.19,913.53 " fill="none" id="Heroe-backto-Elf" style="stroke:#181818;stroke-width:1.0;"/><polygon fill="none" points="486.24,864.01,504.93,854.03,496.54,873.49,486.24,864.01" style="stroke:#181818;stroke-width:1.0;"/></g><!--MD5=[b9524c79acf6325b191a6fe214ac262c]
reverse link Heroe to Hobbit--><g id="link_Heroe_Hobbit"><path codeLine="99" d="M557,874.1 C558.26,887.6 559.54,901.33 560.68,913.53 " fill="none" id="Heroe-backto-Hobbit" style="stroke:#181818;stroke-width:1.0;"/><polygon fill="none" points="550.01,874.6,555.12,854.03,563.95,873.29,550.01,874.6" style="stroke:#181818;stroke-width:1.0;"/></g><!--MD5=[a84e90eb2eee4a7d12877281cdbfee5a]
reverse link Beast to Orc--><g id="link_Beast_Orc"><path codeLine="101" d="M754.99,874.21 C753.42,891.09 751.81,908.32 750.49,922.48 " fill="none" id="Beast-backto-Orc" style="stroke:#181818;stroke-width:1.0;"/><polygon fill="none" points="748.05,873.29,756.88,854.03,761.99,874.6,748.05,873.29" style="stroke:#181818;stroke-width:1.0;"/></g><!--MD5=[30d20cacf9e2122a995009c3193c0b43]
reverse link Beast to Goblin--><g id="link_Beast_Goblin"><path codeLine="102" d="M823.52,868.66 C841.5,887.26 860.36,906.77 875.54,922.48 " fill="none" id="Beast-backto-Goblin" style="stroke:#181818;stroke-width:1.0;"/><polygon fill="none" points="818.25,873.28,809.38,854.03,828.31,863.55,818.25,873.28" style="stroke:#181818;stroke-width:1.0;"/></g><!--MD5=[9c3b017d00e50f3cda5c3311bdac40cf]
reverse link CombatHistory to Turn--><g id="link_CombatHistory_Turn"><path codeLine="104" d="M252.5,156.84 C252.5,181.1 252.5,209.73 252.5,237.91 " fill="none" id="CombatHistory-backto-Turn" style="stroke:#181818;stroke-width:1.0;"/><polygon fill="#181818" points="252.5,151.73,248.5,160.73,252.5,156.73,256.5,160.73,252.5,151.73" style="stroke:#181818;stroke-width:1.0;"/></g><!--MD5=[f67f489e4693e6f2974560dc079132c2]
@startuml LordOfTheRings

class LordOfTheRings{
    -Army heroeArmy
    -Army beastArmy
    -Turn turn

    +void setup()
    +void execute()
    +void createBeastsArmy()
    +void createHeroesArmy()
}

class Turn{
    -Army heroeArmy
    -Army beastArmy
    -int heroeAttack
    -int beastAttack
    -int damageDealt

    +Turn(Army heroeArmy, Army beastArmy)
    -CombatHistory combatHistory
    +void combat()
    +int calculateDamageDealt()
    +int throwDices(Character character)
    +void showTurnResults(int currentTurn, Character heroe, Character beast)
}

class CombatHistory{
    -int turnNumber
    -Character winner
    -Character loser

    +CombatHistory(int turnNumber, Character winner, Character loser)
}

class Army{
    -ArrayList<Character> army

    +Army()
    +ArrayList<Character> getArmy()
    +void setArmy(Character character)
}

abstract class Character{
    -String name
    -int lifePoints
    -int shieldResistance

    +Character(String name, int lifePoints, int shieldResistance)
    +abstract boolean isHeroe()
}

abstract class Heroe{
    #enum characterType
    +boolean isHeroe()
    +abstract boolean isElf()
}

enum characterType{
    ELF
    HOBBIT
    ORC
    GOBLIN
}

class Elf{
    +int hates()
    +boolean isElf()
}

class Hobbit{
    +int fears()
    +boolean isElf()
}

abstract class Beast{
    #enum characterType
    +boolean isHeroe()
    +abstract boolean isOrc()
}

class Orc{
    +boolean isOrc()
}

class Goblin{
    +boolean isOrc()
}

LordOfTheRings *- - Turn
LordOfTheRings *- - Army

Army *- - Character

Character <|- - Heroe
Character <|- - Beast

Heroe <|- - Elf
Heroe <|- - Hobbit

Beast <|- - Orc
Beast <|- - Goblin

CombatHistory <- - Turn

@enduml

PlantUML version 1.2022.7(Mon Aug 22 11:01:30 CST 2022)
(GPL source distribution)
Java Runtime: Java(TM) SE Runtime Environment
JVM: Java HotSpot(TM) 64-Bit Server VM
Default Encoding: Cp1252
Language: en
Country: US
--></g></svg>