<?xml version="1.0" encoding="UTF-8" standalone="no"?><svg xmlns="http://www.w3.org/2000/svg" xmlns:xlink="http://www.w3.org/1999/xlink" contentStyleType="text/css" height="540px" preserveAspectRatio="none" style="width:736px;height:540px;background:#FFFFFF;" version="1.1" viewBox="0 0 736 540" width="736px" zoomAndPan="magnify"><defs/><g><g id="elem_LordOfTheRings"><rect fill="#F1F1F1" height="37.6094" style="stroke:#181818;stroke-width:0.5;" width="119" x="354" y="7"/><text fill="#000000" font-family="sans-serif" font-size="14" lengthAdjust="spacing" textLength="105" x="361" y="23.5332">LordOfTheRings</text><line style="stroke:#181818;stroke-width:0.5;" x1="355" x2="472" y1="28.6094" y2="28.6094"/></g><g id="elem_characters"><rect fill="#F1F1F1" height="37.6094" style="stroke:#181818;stroke-width:0.5;" width="81" x="244" y="301"/><text fill="#000000" font-family="sans-serif" font-size="14" lengthAdjust="spacing" textLength="67" x="251" y="317.5332">characters</text><line style="stroke:#181818;stroke-width:0.5;" x1="245" x2="324" y1="322.6094" y2="322.6094"/></g><g id="elem_heroes"><rect fill="#F1F1F1" height="37.6094" style="stroke:#181818;stroke-width:0.5;" width="58" x="64.5" y="399"/><text fill="#000000" font-family="sans-serif" font-size="14" lengthAdjust="spacing" textLength="44" x="71.5" y="415.5332">heroes</text><line style="stroke:#181818;stroke-width:0.5;" x1="65.5" x2="121.5" y1="420.6094" y2="420.6094"/></g><g id="elem_beasts"><rect fill="#F1F1F1" height="37.6094" style="stroke:#181818;stroke-width:0.5;" width="56" x="157.5" y="399"/><text fill="#000000" font-family="sans-serif" font-size="14" lengthAdjust="spacing" textLength="42" x="164.5" y="415.5332">beasts</text><line style="stroke:#181818;stroke-width:0.5;" x1="158.5" x2="212.5" y1="420.6094" y2="420.6094"/></g><g id="elem_army"><rect fill="#F1F1F1" height="37.6094" style="stroke:#181818;stroke-width:0.5;" width="45" x="391" y="203"/><text fill="#000000" font-family="sans-serif" font-size="14" lengthAdjust="spacing" textLength="31" x="398" y="219.5332">army</text><line style="stroke:#181818;stroke-width:0.5;" x1="392" x2="435" y1="224.6094" y2="224.6094"/></g><g id="elem_throwDices"><rect fill="#F1F1F1" height="37.6094" style="stroke:#181818;stroke-width:0.5;" width="83" x="647" y="301"/><text fill="#000000" font-family="sans-serif" font-size="14" lengthAdjust="spacing" textLength="69" x="654" y="317.5332">throwDices</text><line style="stroke:#181818;stroke-width:0.5;" x1="648" x2="729" y1="322.6094" y2="322.6094"/></g><g id="elem_calculateDamageDealt"><rect fill="#F1F1F1" height="37.6094" style="stroke:#181818;stroke-width:0.5;" width="156" x="360.5" y="301"/><text fill="#000000" font-family="sans-serif" font-size="14" lengthAdjust="spacing" textLength="142" x="367.5" y="317.5332">calculateDamageDealt</text><line style="stroke:#181818;stroke-width:0.5;" x1="361.5" x2="515.5" y1="322.6094" y2="322.6094"/></g><g id="elem_combatHistory"><rect fill="#F1F1F1" height="37.6094" style="stroke:#181818;stroke-width:0.5;" width="103" x="583" y="203"/><text fill="#000000" font-family="sans-serif" font-size="14" lengthAdjust="spacing" textLength="89" x="590" y="219.5332">combatHistory</text><line style="stroke:#181818;stroke-width:0.5;" x1="584" x2="685" y1="224.6094" y2="224.6094"/></g><g id="elem_elf"><rect fill="#F1F1F1" height="37.6094" style="stroke:#181818;stroke-width:0.5;" width="29" x="7" y="497"/><text fill="#000000" font-family="sans-serif" font-size="14" lengthAdjust="spacing" textLength="15" x="14" y="513.5332">elf</text><line style="stroke:#181818;stroke-width:0.5;" x1="8" x2="35" y1="518.6094" y2="518.6094"/></g><g id="elem_hobbit"><rect fill="#F1F1F1" height="37.6094" style="stroke:#181818;stroke-width:0.5;" width="53" x="71" y="497"/><text fill="#000000" font-family="sans-serif" font-size="14" lengthAdjust="spacing" textLength="39" x="78" y="513.5332">hobbit</text><line style="stroke:#181818;stroke-width:0.5;" x1="72" x2="123" y1="518.6094" y2="518.6094"/></g><g id="elem_orc"><rect fill="#F1F1F1" height="37.6094" style="stroke:#181818;stroke-width:0.5;" width="34" x="165.5" y="497"/><text fill="#000000" font-family="sans-serif" font-size="14" lengthAdjust="spacing" textLength="20" x="172.5" y="513.5332">orc</text><line style="stroke:#181818;stroke-width:0.5;" x1="166.5" x2="198.5" y1="518.6094" y2="518.6094"/></g><g id="elem_goblin"><rect fill="#F1F1F1" height="37.6094" style="stroke:#181818;stroke-width:0.5;" width="52" x="234.5" y="497"/><text fill="#000000" font-family="sans-serif" font-size="14" lengthAdjust="spacing" textLength="38" x="241.5" y="513.5332">goblin</text><line style="stroke:#181818;stroke-width:0.5;" x1="235.5" x2="285.5" y1="518.6094" y2="518.6094"/></g><g id="elem_gameGoals"><rect fill="#F1F1F1" height="37.6094" style="stroke:#181818;stroke-width:0.5;" width="86" x="247.5" y="105"/><text fill="#000000" font-family="sans-serif" font-size="14" lengthAdjust="spacing" textLength="72" x="254.5" y="121.5332">gameGoals</text><line style="stroke:#181818;stroke-width:0.5;" x1="248.5" x2="332.5" y1="126.6094" y2="126.6094"/></g><g id="elem_createHeroesArmy"><rect fill="#F1F1F1" height="37.6094" style="stroke:#181818;stroke-width:0.5;" width="131" x="225" y="203"/><text fill="#000000" font-family="sans-serif" font-size="14" lengthAdjust="spacing" textLength="117" x="232" y="219.5332">createHeroesArmy</text><line style="stroke:#181818;stroke-width:0.5;" x1="226" x2="355" y1="224.6094" y2="224.6094"/></g><g id="elem_createBeastsArmy"><rect fill="#F1F1F1" height="37.6094" style="stroke:#181818;stroke-width:0.5;" width="129" x="61" y="203"/><text fill="#000000" font-family="sans-serif" font-size="14" lengthAdjust="spacing" textLength="115" x="68" y="219.5332">createBeastsArmy</text><line style="stroke:#181818;stroke-width:0.5;" x1="62" x2="189" y1="224.6094" y2="224.6094"/></g><g id="elem_combat"><rect fill="#F1F1F1" height="37.6094" style="stroke:#181818;stroke-width:0.5;" width="60" x="551.5" y="301"/><text fill="#000000" font-family="sans-serif" font-size="14" lengthAdjust="spacing" textLength="46" x="558.5" y="317.5332">combat</text><line style="stroke:#181818;stroke-width:0.5;" x1="552.5" x2="610.5" y1="322.6094" y2="322.6094"/></g><g id="elem_turns"><rect fill="#F1F1F1" height="37.6094" style="stroke:#181818;stroke-width:0.5;" width="46" x="476.5" y="105"/><text fill="#000000" font-family="sans-serif" font-size="14" lengthAdjust="spacing" textLength="32" x="483.5" y="121.5332">turns</text><line style="stroke:#181818;stroke-width:0.5;" x1="477.5" x2="521.5" y1="126.6094" y2="126.6094"/></g><g id="elem_turnGoals"><rect fill="#F1F1F1" height="37.6094" style="stroke:#181818;stroke-width:0.5;" width="76" x="471.5" y="203"/><text fill="#000000" font-family="sans-serif" font-size="14" lengthAdjust="spacing" textLength="62" x="478.5" y="219.5332">turnGoals</text><line style="stroke:#181818;stroke-width:0.5;" x1="472.5" x2="546.5" y1="224.6094" y2="224.6094"/></g><g id="elem_lifePoints"><rect fill="#F1F1F1" height="37.6094" style="stroke:#181818;stroke-width:0.5;" width="71" x="249" y="399"/><text fill="#000000" font-family="sans-serif" font-size="14" lengthAdjust="spacing" textLength="57" x="256" y="415.5332">lifePoints</text><line style="stroke:#181818;stroke-width:0.5;" x1="250" x2="319" y1="420.6094" y2="420.6094"/></g><g id="elem_shieldResistance"><rect fill="#F1F1F1" height="37.6094" style="stroke:#181818;stroke-width:0.5;" width="121" x="355" y="399"/><text fill="#000000" font-family="sans-serif" font-size="14" lengthAdjust="spacing" textLength="107" x="362" y="415.5332">shieldResistance</text><line style="stroke:#181818;stroke-width:0.5;" x1="356" x2="475" y1="420.6094" y2="420.6094"/></g><g id="elem_name"><rect fill="#F1F1F1" height="37.6094" style="stroke:#181818;stroke-width:0.5;" width="49" x="511" y="399"/><text fill="#000000" font-family="sans-serif" font-size="14" lengthAdjust="spacing" textLength="35" x="518" y="415.5332">name</text><line style="stroke:#181818;stroke-width:0.5;" x1="512" x2="559" y1="420.6094" y2="420.6094"/></g><!--MD5=[dadc312d5cf33dc66e0fc2f4cda14d31]
reverse link LordOfTheRings to turns--><g id="link_LordOfTheRings_turns"><path codeLine="28" d="M438.55,54.97 C452.91,70.99 470.51,90.64 483.1,104.7 " fill="none" id="LordOfTheRings-backto-turns" style="stroke:#181818;stroke-width:1.0;"/><polygon fill="#181818" points="429.68,45.06,430.7078,52.1975,437.6915,53.9939,436.6638,46.8564,429.68,45.06" style="stroke:#181818;stroke-width:1.0;"/></g><!--MD5=[c3b0b19d43fbe8976dab9cc62f856cb4]
reverse link LordOfTheRings to army--><g id="link_LordOfTheRings_army"><path codeLine="29" d="M413.5,58.43 C413.5,99.46 413.5,169.92 413.5,202.94 " fill="none" id="LordOfTheRings-backto-army" style="stroke:#181818;stroke-width:1.0;"/><polygon fill="#181818" points="413.5,45.25,409.5,51.25,413.5,57.25,417.5,51.25,413.5,45.25" style="stroke:#181818;stroke-width:1.0;"/></g><!--MD5=[3419ed59067385e8b06b34e86c4d629b]
reverse link LordOfTheRings to gameGoals--><g id="link_LordOfTheRings_gameGoals"><path codeLine="30" d="M379.99,53.15 C359.07,69.48 332.64,90.11 313.95,104.7 " fill="none" id="LordOfTheRings-backto-gameGoals" style="stroke:#181818;stroke-width:1.0;"/><polygon fill="none" points="390.36,45.06,383.1692,45.6008,380.9027,52.4464,388.0935,51.9057,390.36,45.06" style="stroke:#181818;stroke-width:1.0;"/></g><!--MD5=[3141e7bf2e77de2660596e2b102f45ef]
reverse link army to characters--><g id="link_army_characters"><path codeLine="32" d="M380.06,247.89 C357.75,264.49 328.92,285.94 308.79,300.92 " fill="none" id="army-backto-characters" style="stroke:#181818;stroke-width:1.0;"/><polygon fill="#181818" points="390.73,239.94,383.5285,240.3115,381.1016,247.102,388.3031,246.7305,390.73,239.94" style="stroke:#181818;stroke-width:1.0;"/></g><!--MD5=[70c032a6838891a10851d718b155e775]
link turns to army--><g id="link_turns_army"><path codeLine="33" d="M483.32,143.06 C469.12,158.91 448.41,182.03 433.24,198.97 " fill="none" id="turns-to-army" style="stroke:#181818;stroke-width:1.0;"/><polygon fill="#181818" points="429.9,202.7,438.8776,198.6499,433.2298,198.9701,432.9097,193.3223,429.9,202.7" style="stroke:#181818;stroke-width:1.0;"/></g><!--MD5=[03109e9fbb4fc9bc367954d95bd5fc08]
reverse link characters to heroes--><g id="link_characters_heroes"><path codeLine="34" d="M230.25,348.27 C195.3,365.83 151.22,387.99 122.7,402.32 " fill="none" id="characters-backto-heroes" style="stroke:#181818;stroke-width:1.0;"/><polygon fill="none" points="227.56,341.78,248.57,339.06,233.85,354.29,227.56,341.78" style="stroke:#181818;stroke-width:1.0;"/></g><!--MD5=[f3f38d33fd13099ea2a22e2aedd4bb4e]
reverse link characters to beasts--><g id="link_characters_beasts"><path codeLine="35" d="M251.33,353.16 C235.7,368.32 217.63,385.85 204.37,398.7 " fill="none" id="characters-backto-beasts" style="stroke:#181818;stroke-width:1.0;"/><polygon fill="none" points="246.65,347.95,265.88,339.06,256.39,358.01,246.65,347.95" style="stroke:#181818;stroke-width:1.0;"/></g><!--MD5=[9e1009f9d7eb6bf22ee448c0ceb0fbe1]
reverse link gameGoals to createHeroesArmy--><g id="link_gameGoals_createHeroesArmy"><path codeLine="37" d="M290.5,163.43 C290.5,176.98 290.5,191.59 290.5,202.7 " fill="none" id="gameGoals-backto-createHeroesArmy" style="stroke:#181818;stroke-width:1.0;"/><polygon fill="none" points="283.5,163.06,290.5,143.06,297.5,163.06,283.5,163.06" style="stroke:#181818;stroke-width:1.0;"/></g><!--MD5=[7cbffbec06215a32b9a81a62cbcdb26f]
reverse link gameGoals to createBeastsArmy--><g id="link_gameGoals_createBeastsArmy"><path codeLine="38" d="M241.98,153.23 C214.42,169.27 180.72,188.87 156.68,202.86 " fill="none" id="gameGoals-backto-createBeastsArmy" style="stroke:#181818;stroke-width:1.0;"/><polygon fill="none" points="238.66,147.06,259.46,143.06,245.7,159.17,238.66,147.06" style="stroke:#181818;stroke-width:1.0;"/></g><!--MD5=[0cc9b419fa2f87f9aeede6144f9f2094]
reverse link turns to turnGoals--><g id="link_turns_turnGoals"><path codeLine="40" d="M502.75,156.22 C504.35,171.59 506.23,189.58 507.59,202.7 " fill="none" id="turns-backto-turnGoals" style="stroke:#181818;stroke-width:1.0;"/><polygon fill="none" points="501.38,143.06,498.0213,149.4411,502.6197,154.9958,505.9785,148.6146,501.38,143.06" style="stroke:#181818;stroke-width:1.0;"/></g><!--MD5=[bb240c09394e7230d809d9c144083bde]
reverse link turnGoals to combat--><g id="link_turnGoals_combat"><path codeLine="41" d="M535.05,257.07 C546.08,271.77 558.54,288.38 567.77,300.7 " fill="none" id="turnGoals-backto-combat" style="stroke:#181818;stroke-width:1.0;"/><polygon fill="none" points="529.44,261.26,523.04,241.06,540.64,252.86,529.44,261.26" style="stroke:#181818;stroke-width:1.0;"/></g><!--MD5=[93bae1bda4372e2aa2996b86e90d1668]
reverse link turnGoals to throwDices--><g id="link_turnGoals_throwDices"><path codeLine="42" d="M560.85,250.54 C590.99,266.7 628.22,286.67 654.68,300.86 " fill="none" id="turnGoals-backto-throwDices" style="stroke:#181818;stroke-width:1.0;"/><polygon fill="none" points="557.49,256.68,543.17,241.06,564.1,244.34,557.49,256.68" style="stroke:#181818;stroke-width:1.0;"/></g><!--MD5=[76ef9f797a9edeca9263b82fe4fa7e76]
reverse link turnGoals to calculateDamageDealt--><g id="link_turnGoals_calculateDamageDealt"><path codeLine="43" d="M483.95,257.55 C473.16,272.13 461.05,288.52 452.04,300.7 " fill="none" id="turnGoals-backto-calculateDamageDealt" style="stroke:#181818;stroke-width:1.0;"/><polygon fill="none" points="478.62,252.97,496.15,241.06,489.88,261.3,478.62,252.97" style="stroke:#181818;stroke-width:1.0;"/></g><!--MD5=[4cf12f561b4bd413a343ee8671bde9b9]
reverse link characters to name--><g id="link_characters_name"><path codeLine="45" d="M337.44,339.97 C379.85,355.35 440.77,377.87 493.5,399 C499.1,401.24 505.07,403.74 510.71,406.14 " fill="none" id="characters-backto-name" style="stroke:#181818;stroke-width:1.0;"/><polygon fill="#181818" points="325.18,335.53,329.4594,341.334,336.4629,339.6161,332.1835,333.8121,325.18,335.53" style="stroke:#181818;stroke-width:1.0;"/></g><!--MD5=[a40a0049e9c61d5ac3f4e3493023b652]
reverse link characters to lifePoints--><g id="link_characters_lifePoints"><path codeLine="46" d="M284.5,352.22 C284.5,367.59 284.5,385.58 284.5,398.7 " fill="none" id="characters-backto-lifePoints" style="stroke:#181818;stroke-width:1.0;"/><polygon fill="#181818" points="284.5,339.06,280.5,345.06,284.5,351.06,288.5,345.06,284.5,339.06" style="stroke:#181818;stroke-width:1.0;"/></g><!--MD5=[d66092a37733dc18c80a318baf62d721]
reverse link characters to shieldResistance--><g id="link_characters_shieldResistance"><path codeLine="47" d="M319.88,346.93 C342.21,363.29 370.52,384.04 390.52,398.7 " fill="none" id="characters-backto-shieldResistance" style="stroke:#181818;stroke-width:1.0;"/><polygon fill="#181818" points="309.14,339.06,311.6146,345.8332,318.8185,346.1541,316.344,339.3809,309.14,339.06" style="stroke:#181818;stroke-width:1.0;"/></g><!--MD5=[9e72a8751010791e6383bc331cc8f9a0]
link turns to combatHistory--><g id="link_turns_combatHistory"><path codeLine="49" d="M522.71,141.5 C545.37,157.62 579.96,182.21 604.66,199.78 " fill="none" id="turns-to-combatHistory" style="stroke:#181818;stroke-width:1.0;"/><polygon fill="#181818" points="608.84,202.75,603.8301,194.2706,604.7675,199.8492,599.1888,200.7866,608.84,202.75" style="stroke:#181818;stroke-width:1.0;"/></g><!--MD5=[b96d12292e30266a63b74071434ba0f7]
reverse link heroes to elf--><g id="link_heroes_elf"><path codeLine="51" d="M67.95,453.07 C56.92,467.77 44.46,484.38 35.23,496.7 " fill="none" id="heroes-backto-elf" style="stroke:#181818;stroke-width:1.0;"/><polygon fill="none" points="62.36,448.86,79.96,437.06,73.56,457.26,62.36,448.86" style="stroke:#181818;stroke-width:1.0;"/></g><!--MD5=[34056cc19618046494f17a2a948f7aa1]
reverse link heroes to hobbit--><g id="link_heroes_hobbit"><path codeLine="52" d="M95.1,457.43 C95.67,470.98 96.27,485.59 96.74,496.7 " fill="none" id="heroes-backto-hobbit" style="stroke:#181818;stroke-width:1.0;"/><polygon fill="none" points="88.09,457.33,94.25,437.06,102.08,456.75,88.09,457.33" style="stroke:#181818;stroke-width:1.0;"/></g><!--MD5=[4d7e357f3cc28a3f814c39d028cf2851]
reverse link beasts to orc--><g id="link_beasts_orc"><path codeLine="53" d="M184.3,457.43 C183.88,470.98 183.42,485.59 183.07,496.7 " fill="none" id="beasts-backto-orc" style="stroke:#181818;stroke-width:1.0;"/><polygon fill="none" points="177.31,456.83,184.94,437.06,191.31,457.27,177.31,456.83" style="stroke:#181818;stroke-width:1.0;"/></g><!--MD5=[dc1c208831ad3ee8aead7587e021b746]
reverse link beasts to goblin--><g id="link_beasts_goblin"><path codeLine="54" d="M212.12,453.07 C223.6,467.77 236.58,484.38 246.2,496.7 " fill="none" id="beasts-backto-goblin" style="stroke:#181818;stroke-width:1.0;"/><polygon fill="none" points="206.4,457.13,199.61,437.06,217.44,448.51,206.4,457.13" style="stroke:#181818;stroke-width:1.0;"/></g><!--MD5=[7cafe5e75795161b154e604ee49f1992]
@startuml

object LordOfTheRings

object characters
object heroes
object beasts
object army
object throwDices
object calculateDamageDealt
object combatHistory
object elf
object hobbit
object orc
object goblin

object gameGoals
object createHeroesArmy
object createBeastsArmy
object combat

object turns
object turnGoals

object lifePoints
object shieldResistance
object name

LordOfTheRings *- - turns
LordOfTheRings *- - army
LordOfTheRings o- - gameGoals

army *- - characters
turns - -> army
characters <|- - heroes
characters <|- - beasts

gameGoals <|- - createHeroesArmy
gameGoals <|- - createBeastsArmy

turns o- - turnGoals
turnGoals <|- - combat
turnGoals <|- - throwDices
turnGoals <|- - calculateDamageDealt

characters *- - name
characters *- - lifePoints
characters *- - shieldResistance

turns - -> combatHistory

heroes <|- - elf
heroes <|- - hobbit
beasts <|- - orc
beasts <|- - goblin
@enduml

PlantUML version 1.2022.7(Mon Aug 22 11:01:30 CST 2022)
(GPL source distribution)
Java Runtime: Java(TM) SE Runtime Environment
JVM: Java HotSpot(TM) 64-Bit Server VM
Default Encoding: Cp1252
Language: en
Country: US
--></g></svg>